<svg height="8.0" width="9.0" xmlns="http://www.w3.org/2000/svg">
    <polygon points="0.0,0.0 2.0,0.0 2.0,1.0 0.0,1.0 " style="fill:#646464;stroke:rgb(100,100,100);stroke-width:0.1"/>
    <polygon points="2.0,0.0 3.0,0.0 3.0,1.0 2.0,1.0 " style="fill:#7D7D7D;stroke:rgb(125,125,125);stroke-width:0.1"/>
    <polygon points="4.0,0.0 5.0,0.0 5.0,1.0 4.0,1.0 " style="fill:#969696;stroke:rgb(150,150,150);stroke-width:0.1"/>
    <polygon points="6.0,0.0 7.0,0.0 7.0,1.0 6.0,1.0 " style="fill:#AFAFAF;stroke:rgb(175,175,175);stroke-width:0.1"/>
    <polygon points="8.0,0.0 9.0,0.0 9.0,1.0 8.0,1.0 " style="fill:#000000;stroke:rgb(0,0,0);stroke-width:0.1"/>
    <polygon points="0.0,1.0 2.0,1.0 2.0,2.0 0.0,2.0 " style="fill:#646464;stroke:rgb(100,100,100);stroke-width:0.1"/>
    <polygon points="2.0,1.0 3.0,1.0 3.0,2.0 2.0,2.0 " style="fill:#7D7D7D;stroke:rgb(125,125,125);stroke-width:0.1"/>
    <polygon points="4.0,1.0 5.0,1.0 5.0,2.0 4.0,2.0 " style="fill:#969696;stroke:rgb(150,150,150);stroke-width:0.1"/>
    <polygon points="6.0,1.0 7.0,1.0 7.0,2.0 6.0,2.0 " style="fill:#AFAFAF;stroke:rgb(175,175,175);stroke-width:0.1"/>
    <polygon points="8.0,1.0 9.0,1.0 9.0,2.0 8.0,2.0 " style="fill:#000000;stroke:rgb(0,0,0);stroke-width:0.1"/>
    <polygon points="0.0,2.0 2.0,2.0 2.0,3.0 0.0,3.0 " style="fill:#646464;stroke:rgb(100,100,100);stroke-width:0.1"/>
    <polygon points="2.0,2.0 3.0,2.0 3.0,3.0 2.0,3.0 " style="fill:#7D7D7D;stroke:rgb(125,125,125);stroke-width:0.1"/>
    <polygon points="4.0,2.0 5.0,2.0 5.0,3.0 4.0,3.0 " style="fill:#969696;stroke:rgb(150,150,150);stroke-width:0.1"/>
    <polygon points="6.0,2.0 7.0,2.0 7.0,3.0 6.0,3.0 " style="fill:#AFAFAF;stroke:rgb(175,175,175);stroke-width:0.1"/>
    <polygon points="8.0,2.0 9.0,2.0 9.0,3.0 8.0,3.0 " style="fill:#000000;stroke:rgb(0,0,0);stroke-width:0.1"/>
    <polygon points="0.0,3.0 2.0,3.0 2.0,4.0 0.0,4.0 " style="fill:#646464;stroke:rgb(100,100,100);stroke-width:0.1"/>
    <polygon points="4.0,3.0 5.0,3.0 5.0,4.0 4.0,4.0 " style="fill:#969696;stroke:rgb(150,150,150);stroke-width:0.1"/>
    <polygon points="6.0,3.0 7.0,3.0 7.0,4.0 6.0,4.0 " style="fill:#AFAFAF;stroke:rgb(175,175,175);stroke-width:0.1"/>
    <polygon points="8.0,3.0 9.0,3.0 9.0,4.0 8.0,4.0 " style="fill:#000000;stroke:rgb(0,0,0);stroke-width:0.1"/>
    <polygon points="0.0,4.0 2.0,4.0 2.0,5.0 0.0,5.0 " style="fill:#646464;stroke:rgb(100,100,100);stroke-width:0.1"/>
    <polygon points="6.0,4.0 7.0,4.0 7.0,5.0 6.0,5.0 " style="fill:#AFAFAF;stroke:rgb(175,175,175);stroke-width:0.1"/>
    <polygon points="8.0,4.0 9.0,4.0 9.0,5.0 8.0,5.0 " style="fill:#000000;stroke:rgb(0,0,0);stroke-width:0.1"/>
    <polygon points="0.0,5.0 2.0,5.0 2.0,6.0 0.0,6.0 " style="fill:#646464;stroke:rgb(100,100,100);stroke-width:0.1"/>
    <polygon points="0.0,6.0 2.0,6.0 2.0,7.0 0.0,7.0 " style="fill:#646464;stroke:rgb(100,100,100);stroke-width:0.1"/>
    <polygon points="0.0,7.0 2.0,7.0 2.0,8.0 0.0,8.0 " style="fill:#646464;stroke:rgb(100,100,100);stroke-width:0.1"/>
</svg>