<svg height="207.50368" width="149.45995" xmlns="http://www.w3.org/2000/svg"><polygon points="23.526165,153.98291 23.526165,154.98291 24.526165,154.98291 24.526165,153.98291 " style="fill:#EEEEEE;stroke:rgb(0,0,255);stroke-width:1"/><polygon points="23.526165,153.9329 23.543793,154.94275 24.553638,154.92513 24.53601,153.91528 " style="fill:#EEEEEE;stroke:rgb(0,0,255);stroke-width:1"/><polygon points="23.525284,153.88242 23.560884,154.9019 24.580362,154.8663 24.544762,153.84682 " style="fill:#EEEEEE;stroke:rgb(0,0,255);stroke-width:1"/><polygon points="23.523504,153.83145 23.577425,154.86034 24.606314,154.80641 24.552393,153.77753 " style="fill:#EEEEEE;stroke:rgb(0,0,255);stroke-width:1"/><polygon points="23.520807,153.78 23.593397,154.81807 24.631466,154.74548 24.558876,153.70741 " style="fill:#EEEEEE;stroke:rgb(0,0,255);stroke-width:1"/><polygon points="23.517178,153.72809 23.60878,154.7751 24.65579,154.6835 24.564188,153.63649 " style="fill:#EEEEEE;stroke:rgb(0,0,255);stroke-width:1"/><polygon points="23.512598,153.67575 23.623556,154.73145 24.679262,154.6205 24.568302,153.56479 " style="fill:#EEEEEE;stroke:rgb(0,0,255);stroke-width:1"/><polygon points="23.50705,153.62296 23.63771,154.6871 24.701855,154.55644 24.571194,153.4923 " style="fill:#EEEEEE;stroke:rgb(0,0,255);stroke-width:1"/><polygon points="23.500517,153.56975 23.651222,154.64207 24.72354,154.49136 24.572836,153.41905 " style="fill:#EEEEEE;stroke:rgb(0,0,255);stroke-width:1"/><polygon points="23.492981,153.51614 23.664072,154.59636 24.744291,154.42526 24.573202,153.34505 " style="fill:#EEEEEE;stroke:rgb(0,0,255);stroke-width:1"/><polygon points="23.484426,153.46213 23.676243,154.54997 24.764084,154.35815 24.572268,153.27031 " style="fill:#EEEEEE;stroke:rgb(0,0,255);stroke-width:1"/><polygon points="23.474836,153.40773 23.687716,154.5029 24.782887,154.29002 24.570007,153.19485 " style="fill:#EEEEEE;stroke:rgb(0,0,255);stroke-width:1"/><polygon points="23.464193,153.35298 23.698473,154.45517 24.800674,154.2209 24.566395,153.1187 " style="fill:#EEEEEE;stroke:rgb(0,0,255);stroke-width:1"/><polygon points="23.452478,153.29787 23.708494,154.40678 24.81742,154.15077 24.561403,153.04185 " style="fill:#EEEEEE;stroke:rgb(0,0,255);stroke-width:1"/><polygon points="23.439678,153.24242 23.71776,154.35774 24.833092,154.07967 24.555008,152.96434 " style="fill:#EEEEEE;stroke:rgb(0,0,255);stroke-width:1"/><polygon points="23.425774,153.18665 23.726255,154.30806 24.847664,154.00758 24.547184,152.88617 " style="fill:#EEEEEE;stroke:rgb(0,0,255);stroke-width:1"/><polygon points="23.41075,153.13058 23.733955,154.25774 24.86111,153.93452 24.537905,152.80737 " style="fill:#EEEEEE;stroke:rgb(0,0,255);stroke-width:1"/><polygon points="23.394588,153.07422 23.740847,154.20679 24.873404,153.86052 24.527145,152.72797 " style="fill:#EEEEEE;stroke:rgb(0,0,255);stroke-width:1"/><polygon points="23.377275,153.0176 23.746906,154.1552 24.88451,153.78557 24.514881,152.64796 " style="fill:#EEEEEE;stroke:rgb(0,0,255);stroke-width:1"/><polygon points="23.358795,152.96072 23.752117,154.10301 24.894407,153.70969 24.501085,152.5674 " style="fill:#EEEEEE;stroke:rgb(0,0,255);stroke-width:1"/><polygon points="23.339128,152.9036 23.756458,154.0502 24.903063,153.63287 24.485733,152.48627 " style="fill:#EEEEEE;stroke:rgb(0,0,255);stroke-width:1"/><polygon points="23.318262,152.84627 23.759912,153.99681 24.91045,153.55516 24.4688,152.40462 " style="fill:#EEEEEE;stroke:rgb(0,0,255);stroke-width:1"/><polygon points="23.29618,152.78874 23.762459,153.94283 24.91654,153.47655 24.45026,152.32246 " style="fill:#EEEEEE;stroke:rgb(0,0,255);stroke-width:1"/><polygon points="23.272865,152.73105 23.764078,153.88826 24.921305,153.39705 24.43009,152.23982 " style="fill:#EEEEEE;stroke:rgb(0,0,255);stroke-width:1"/><polygon points="23.248304,152.67319 23.764753,153.83315 24.924713,153.3167 24.408266,152.15674 " style="fill:#EEEEEE;stroke:rgb(0,0,255);stroke-width:1"/><polygon points="23.222483,152.61519 23.764462,153.77747 24.92674,153.23547 24.384762,152.0732 " style="fill:#EEEEEE;stroke:rgb(0,0,255);stroke-width:1"/><polygon points="23.195383,152.55707 23.763187,153.72124 24.927357,153.15343 24.359552,151.98926 " style="fill:#EEEEEE;stroke:rgb(0,0,255);stroke-width:1"/><polygon points="23.166994,152.49886 23.760908,153.66447 24.92653,153.07057 24.332617,151.90494 " style="fill:#EEEEEE;stroke:rgb(0,0,255);stroke-width:1"/><polygon points="23.137299,152.44058 23.757607,153.60721 24.924238,152.9869 24.303928,151.82027 " style="fill:#EEEEEE;stroke:rgb(0,0,255);stroke-width:1"/><polygon points="23.106283,152.38225 23.753263,153.54942 24.920446,152.90245 24.273466,151.73526 " style="fill:#EEEEEE;stroke:rgb(0,0,255);stroke-width:1"/><polygon points="23.073935,152.32388 23.747858,153.49117 24.91513,152.81723 24.241205,151.64996 " style="fill:#EEEEEE;stroke:rgb(0,0,255);stroke-width:1"/><polygon points="23.040237,152.26552 23.741373,153.4324 24.908258,152.73128 24.207123,151.56439 " style="fill:#EEEEEE;stroke:rgb(0,0,255);stroke-width:1"/><polygon points="23.00518,152.20718 23.733788,153.3732 24.899805,152.64459 24.171196,151.47858 " style="fill:#EEEEEE;stroke:rgb(0,0,255);stroke-width:1"/><polygon points="22.96875,152.14888 23.725084,153.31354 24.88974,152.5572 24.133404,151.39255 " style="fill:#EEEEEE;stroke:rgb(0,0,255);stroke-width:1"/><polygon points="22.930933,152.09065 23.715244,153.25343 24.878035,152.46913 24.093723,151.30634 " style="fill:#EEEEEE;stroke:rgb(0,0,255);stroke-width:1"/><polygon points="22.891718,152.0325 23.704248,153.19292 24.864662,152.38039 24.052132,151.21997 " style="fill:#EEEEEE;stroke:rgb(0,0,255);stroke-width:1"/><polygon points="22.851091,151.97449 23.692076,153.132 24.849594,152.29102 24.008608,151.1335 " style="fill:#EEEEEE;stroke:rgb(0,0,255);stroke-width:1"/><polygon points="22.809042,151.91661 23.67871,153.0707 24.832802,152.20103 23.963133,151.04694 " style="fill:#EEEEEE;stroke:rgb(0,0,255);stroke-width:1"/><polygon points="22.765558,151.8589 23.664133,153.00903 24.814257,152.11046 23.915682,150.96033 " style="fill:#EEEEEE;stroke:rgb(0,0,255);stroke-width:1"/><polygon points="22.72063,151.8014 23.648325,152.947 24.793934,152.01932 23.86624,150.8737 " style="fill:#EEEEEE;stroke:rgb(0,0,255);stroke-width:1"/><polygon points="22.674246,151.74413 23.631268,152.88466 24.771805,151.92763 23.814781,150.7871 " style="fill:#EEEEEE;stroke:rgb(0,0,255);stroke-width:1"/><polygon points="22.626394,151.68709 23.612944,152.82199 24.74784,151.83543 23.761292,150.70055 " style="fill:#EEEEEE;stroke:rgb(0,0,255);stroke-width:1"/><polygon points="22.577066,151.63036 23.593336,152.75903 24.722017,151.74277 23.705748,150.61407 " style="fill:#EEEEEE;stroke:rgb(0,0,255);stroke-width:1"/><polygon points="22.526253,151.57391 23.572424,152.6958 24.694305,151.64963 23.648134,150.52774 " style="fill:#EEEEEE;stroke:rgb(0,0,255);stroke-width:1"/><polygon points="22.473946,151.51782 23.55019,152.63231 24.664677,151.55606 23.58843,150.44157 " style="fill:#EEEEEE;stroke:rgb(0,0,255);stroke-width:1"/><polygon points="22.420132,151.4621 23.52662,152.56859 24.63311,151.4621 23.52662,150.3556 " style="fill:#EEEEEE;stroke:rgb(0,0,255);stroke-width:1"/><polygon points="22.364807,151.40677 23.501696,152.50465 24.599575,151.36777 23.462687,150.26988 " style="fill:#EEEEEE;stroke:rgb(0,0,255);stroke-width:1"/><polygon points="22.307964,151.35188 23.475397,152.44052 24.564047,151.27309 23.396614,150.18445 " style="fill:#EEEEEE;stroke:rgb(0,0,255);stroke-width:1"/><polygon points="22.249592,151.29744 23.44771,152.37624 24.5265,151.17812 23.328382,150.09933 " style="fill:#EEEEEE;stroke:rgb(0,0,255);stroke-width:1"/><polygon points="22.189686,151.2435 23.418615,152.3118 24.48691,151.08287 23.257978,150.01457 " style="fill:#EEEEEE;stroke:rgb(0,0,255);stroke-width:1"/><polygon points="22.128239,151.1901 23.3881,152.24724 24.445251,150.98738 23.185389,149.93024 " style="fill:#EEEEEE;stroke:rgb(0,0,255);stroke-width:1"/><polygon points="22.065247,151.13724 23.356146,152.18259 24.401499,150.89168 23.110598,149.84633 " style="fill:#EEEEEE;stroke:rgb(0,0,255);stroke-width:1"/><polygon points="22.000702,151.08496 23.322739,152.11786 24.355627,150.79582 23.03359,149.76292 " style="fill:#EEEEEE;stroke:rgb(0,0,255);stroke-width:1"/><polygon points="21.934599,151.03333 23.28786,152.05307 24.307617,150.69981 22.954355,149.68005 " style="fill:#EEEEEE;stroke:rgb(0,0,255);stroke-width:1"/><polygon points="21.866936,150.98233 23.251497,151.98828 24.25744,150.60371 22.872879,149.59778 " style="fill:#EEEEEE;stroke:rgb(0,0,255);stroke-width:1"/><polygon points="21.797709,150.93204 23.213633,151.92348 24.205074,150.50755 22.78915,149.51611 " style="fill:#EEEEEE;stroke:rgb(0,0,255);stroke-width:1"/><polygon points="21.726913,150.88246 23.174253,151.8587 24.1505,150.41136 22.703157,149.43512 " style="fill:#EEEEEE;stroke:rgb(0,0,255);stroke-width:1"/><polygon points="21.654545,150.83365 23.133347,151.79399 24.093693,150.3152 22.614891,149.35484 " style="fill:#EEEEEE;stroke:rgb(0,0,255);stroke-width:1"/><polygon points="21.580605,150.78563 23.090895,151.72937 24.03463,150.21909 22.52434,149.27534 " style="fill:#EEEEEE;stroke:rgb(0,0,255);stroke-width:1"/><polygon points="21.50509,150.73845 23.046886,151.66486 23.973291,150.12306 22.431496,149.19666 " style="fill:#EEEEEE;stroke:rgb(0,0,255);stroke-width:1"/><polygon points="21.428001,150.69212 23.001307,151.60048 23.909657,150.02718 22.33635,149.11882 " style="fill:#EEEEEE;stroke:rgb(0,0,255);stroke-width:1"/><polygon points="21.349337,150.64671 22.954144,151.53627 23.843704,149.93146 22.238895,149.0419 " style="fill:#EEEEEE;stroke:rgb(0,0,255);stroke-width:1"/><polygon points="21.269096,150.60223 22.905384,151.47226 23.775417,149.83597 22.139126,148.96594 " style="fill:#EEEEEE;stroke:rgb(0,0,255);stroke-width:1"/><polygon points="21.18728,150.55873 22.855017,151.4085 23.704773,149.74075 22.037035,148.89099 " style="fill:#EEEEEE;stroke:rgb(0,0,255);stroke-width:1"/><polygon points="21.103893,150.51625 22.80303,151.34497 23.631756,149.64583 21.93262,148.81711 " style="fill:#EEEEEE;stroke:rgb(0,0,255);stroke-width:1"/><polygon points="21.018938,150.47481 22.74941,151.28174 23.556345,149.55127 21.82587,148.74432 " style="fill:#EEEEEE;stroke:rgb(0,0,255);stroke-width:1"/><polygon points="20.932413,150.43446 22.694149,151.21884 23.478527,149.45709 21.71679,148.67271 " style="fill:#EEEEEE;stroke:rgb(0,0,255);stroke-width:1"/><polygon points="20.844326,150.39525 22.637236,151.15628 23.398281,149.36337 21.605371,148.60233 " style="fill:#EEEEEE;stroke:rgb(0,0,255);stroke-width:1"/><polygon points="20.75468,150.3572 22.578657,151.09413 23.315594,149.27014 21.491615,148.5332 " style="fill:#EEEEEE;stroke:rgb(0,0,255);stroke-width:1"/><polygon points="20.663483,150.32034 22.518408,151.03238 23.23045,149.17746 21.375523,148.46541 " style="fill:#EEEEEE;stroke:rgb(0,0,255);stroke-width:1"/><polygon points="20.570736,150.28474 22.456476,150.9711 23.142832,149.08536 21.25709,148.39899 " style="fill:#EEEEEE;stroke:rgb(0,0,255);stroke-width:1"/><polygon points="20.47645,150.25043 22.392857,150.9103 23.052729,148.99388 21.13632,148.33401 " style="fill:#EEEEEE;stroke:rgb(0,0,255);stroke-width:1"/><polygon points="20.380629,150.21744 22.327536,150.85002 22.960125,148.9031 21.013218,148.27052 " style="fill:#EEEEEE;stroke:rgb(0,0,255);stroke-width:1"/><polygon points="20.283283,150.1858 22.260511,150.7903 22.865011,148.81306 20.887783,148.20857 " style="fill:#EEEEEE;stroke:rgb(0,0,255);stroke-width:1"/><polygon points="20.184422,150.15558 22.191772,150.73117 22.767372,148.72382 20.76002,148.14822 " style="fill:#EEEEEE;stroke:rgb(0,0,255);stroke-width:1"/><polygon points="20.084055,150.1268 22.121317,150.67268 22.6672,148.6354 20.629936,148.08952 " style="fill:#EEEEEE;stroke:rgb(0,0,255);stroke-width:1"/><polygon points="19.982193,150.0995 22.049135,150.61485 22.564482,148.5479 20.497538,148.03255 " style="fill:#EEEEEE;stroke:rgb(0,0,255);stroke-width:1"/><polygon points="19.878845,150.07373 21.975224,150.55772 22.459211,148.46133 20.362831,147.97734 " style="fill:#EEEEEE;stroke:rgb(0,0,255);stroke-width:1"/><polygon points="19.774027,150.04953 21.899576,150.50134 22.351377,148.37578 20.225824,147.92398 " style="fill:#EEEEEE;stroke:rgb(0,0,255);stroke-width:1"/><polygon points="19.66775,150.02695 21.822191,150.44572 22.240973,148.29128 20.086529,147.8725 " style="fill:#EEEEEE;stroke:rgb(0,0,255);stroke-width:1"/><polygon points="19.560026,150.00601 21.743065,150.39093 22.127993,148.20789 19.944952,147.82295 " style="fill:#EEEEEE;stroke:rgb(0,0,255);stroke-width:1"/><polygon points="19.450874,149.98676 21.662193,150.337 22.01243,148.12567 19.80111,147.77544 " style="fill:#EEEEEE;stroke:rgb(0,0,255);stroke-width:1"/><polygon points="19.34031,149.96925 21.579573,150.28395 21.894281,148.04468 19.655014,147.72998 " style="fill:#EEEEEE;stroke:rgb(0,0,255);stroke-width:1"/><polygon points="19.228346,149.9535 21.495205,150.23184 21.77354,147.96498 19.506678,147.68665 " style="fill:#EEEEEE;stroke:rgb(0,0,255);stroke-width:1"/><polygon points="19.115004,149.93959 21.409088,150.18071 21.650206,147.88661 19.356117,147.6455 " style="fill:#EEEEEE;stroke:rgb(0,0,255);stroke-width:1"/><polygon points="19.0003,149.92754 21.321222,150.1306 21.524277,147.80966 19.20335,147.6066 " style="fill:#EEEEEE;stroke:rgb(0,0,255);stroke-width:1"/><polygon points="18.884253,149.91739 21.231607,150.08153 21.39575,147.73416 19.048391,147.57002 " style="fill:#EEEEEE;stroke:rgb(0,0,255);stroke-width:1"/><polygon points="18.766886,149.90918 21.140245,150.03357 21.264627,147.66019 18.891264,147.53581 " style="fill:#EEEEEE;stroke:rgb(0,0,255);stroke-width:1"/><polygon points="18.648216,149.90295 21.047138,149.98674 21.13091,147.5878 18.731985,147.50403 " style="fill:#EEEEEE;stroke:rgb(0,0,255);stroke-width:1"/><polygon points="18.52827,149.89877 20.95229,149.94109 20.9946,147.51706 18.570578,147.47475 " style="fill:#EEEEEE;stroke:rgb(0,0,255);stroke-width:1"/><polygon points="18.40707,149.89665 20.855701,149.89665 20.855701,147.44801 18.407066,147.44801 " style="fill:#EEEEEE;stroke:rgb(0,0,255);stroke-width:1"/><polygon points="18.284637,149.89665 20.75738,149.8535 20.714216,147.38074 18.24147,147.4239 " style="fill:#EEEEEE;stroke:rgb(0,0,255);stroke-width:1"/><polygon points="18.161001,149.89882 20.65733,149.81165 20.570154,147.3153 18.073822,147.40247 " style="fill:#EEEEEE;stroke:rgb(0,0,255);stroke-width:1"/><polygon points="18.036184,149.90317 20.555555,149.77113 20.42352,147.25175 17.904144,147.38379 " style="fill:#EEEEEE;stroke:rgb(0,0,255);stroke-width:1"/><polygon points="17.910215,149.90977 20.452065,149.73203 20.27432,147.19017 17.732468,147.3679 " style="fill:#EEEEEE;stroke:rgb(0,0,255);stroke-width:1"/><polygon points="17.783123,149.91866 20.346867,149.69437 20.122566,147.13062 17.558819,147.3549 " style="fill:#EEEEEE;stroke:rgb(0,0,255);stroke-width:1"/><polygon points="17.654936,149.92987 20.23997,149.65817 19.96827,147.07314 17.383232,147.34483 " style="fill:#EEEEEE;stroke:rgb(0,0,255);stroke-width:1"/><polygon points="17.525684,149.94345 20.131382,149.62352 19.81144,147.0178 17.205738,147.33775 " style="fill:#EEEEEE;stroke:rgb(0,0,255);stroke-width:1"/><polygon points="17.3954,149.95946 20.021112,149.59044 19.65209,146.9647 17.026373,147.33372 " style="fill:#EEEEEE;stroke:rgb(0,0,255);stroke-width:1"/><polygon points="17.264114,149.9779 19.909176,149.55898 19.490236,146.9139 16.845171,147.33284 " style="fill:#EEEEEE;stroke:rgb(0,0,255);stroke-width:1"/><polygon points="17.13186,149.99886 19.795582,149.52917 19.325893,146.86543 16.662169,147.33511 " style="fill:#EEEEEE;stroke:rgb(0,0,255);stroke-width:1"/><polygon points="16.998674,150.02234 19.680344,149.50107 19.159077,146.8194 16.477406,147.34065 " style="fill:#EEEEEE;stroke:rgb(0,0,255);stroke-width:1"/><polygon points="16.864592,150.0484 19.563477,149.47473 18.989807,146.77583 16.290918,147.3495 " style="fill:#EEEEEE;stroke:rgb(0,0,255);stroke-width:1"/><polygon points="16.729647,150.07709 19.444994,149.4502 18.818104,146.73483 16.102753,147.36172 " style="fill:#EEEEEE;stroke:rgb(0,0,255);stroke-width:1"/><polygon points="16.59388,150.10843 19.324913,149.4275 18.643986,146.69646 15.912949,147.37738 " style="fill:#EEEEEE;stroke:rgb(0,0,255);stroke-width:1"/><polygon points="16.457329,150.14247 19.203249,149.40671 18.467476,146.66077 15.721552,147.39655 " style="fill:#EEEEEE;stroke:rgb(0,0,255);stroke-width:1"/><polygon points="16.320032,150.17926 19.08002,149.38785 18.2886,146.62785 15.528609,147.41927 " style="fill:#EEEEEE;stroke:rgb(0,0,255);stroke-width:1"/><polygon points="16.182034,150.21883 18.955246,149.37097 18.107384,146.59775 15.334167,147.4456 " style="fill:#EEEEEE;stroke:rgb(0,0,255);stroke-width:1"/><polygon points="16.043371,150.26123 18.828945,149.35614 17.923853,146.57056 15.138273,147.47565 " style="fill:#EEEEEE;stroke:rgb(0,0,255);stroke-width:1"/><polygon points="15.904093,150.30647 18.701141,149.34338 17.738033,146.54633 14.940981,147.50941 " style="fill:#EEEEEE;stroke:rgb(0,0,255);stroke-width:1"/><polygon points="15.76424,150.35463 18.571852,149.33275 17.54996,146.52513 14.742342,147.54701 " style="fill:#EEEEEE;stroke:rgb(0,0,255);stroke-width:1"/><polygon points="15.623859,150.40573 18.441101,149.3243 17.359657,146.50703 14.54241,147.58847 " style="fill:#EEEEEE;stroke:rgb(0,0,255);stroke-width:1"/><polygon points="15.482997,150.4598 18.308916,149.31805 17.167164,146.49213 14.341241,147.63387 " style="fill:#EEEEEE;stroke:rgb(0,0,255);stroke-width:1"/><polygon points="15.3417,150.51689 18.17532,149.31409 16.972513,146.48045 14.13889,147.68326 " style="fill:#EEEEEE;stroke:rgb(0,0,255);stroke-width:1"/><polygon points="15.200019,150.57703 18.040337,149.31244 16.77574,146.4721 13.935418,147.7367 " style="fill:#EEEEEE;stroke:rgb(0,0,255);stroke-width:1"/><polygon points="15.058003,150.64026 17.903996,149.31316 16.576881,146.46715 13.730885,147.79425 " style="fill:#EEEEEE;stroke:rgb(0,0,255);stroke-width:1"/><polygon points="14.915704,150.70662 17.766327,149.31627 16.375978,146.46564 13.525352,147.85599 " style="fill:#EEEEEE;stroke:rgb(0,0,255);stroke-width:1"/><polygon points="14.773172,150.77612 17.627356,149.32185 16.173069,146.46765 13.318883,147.92194 " style="fill:#EEEEEE;stroke:rgb(0,0,255);stroke-width:1"/><polygon points="14.630463,150.84885 17.487114,149.32994 15.968199,146.47327 13.111544,147.99219 " style="fill:#EEEEEE;stroke:rgb(0,0,255);stroke-width:1"/><polygon points="14.487631,150.92479 17.345634,149.34058 15.76141,146.48256 12.903401,148.06677 " style="fill:#EEEEEE;stroke:rgb(0,0,255);stroke-width:1"/><polygon points="14.34473,151.004 17.202951,149.3538 15.552748,146.49557 12.694525,148.14577 " style="fill:#EEEEEE;stroke:rgb(0,0,255);stroke-width:1"/><polygon points="14.201818,151.0865 17.059093,149.36969 15.342261,146.5124 12.484983,148.22922 " style="fill:#EEEEEE;stroke:rgb(0,0,255);stroke-width:1"/><polygon points="14.058954,151.17235 16.9141,149.38826 15.129999,146.5331 12.274851,148.3172 " style="fill:#EEEEEE;stroke:rgb(0,0,255);stroke-width:1"/><polygon points="13.916197,151.26155 16.76801,149.40956 14.916012,146.55774 12.064199,148.40973 " style="fill:#EEEEEE;stroke:rgb(0,0,255);stroke-width:1"/><polygon points="13.773607,151.35416 16.620852,149.43365 14.700352,146.58641 11.853105,148.5069 " style="fill:#EEEEEE;stroke:rgb(0,0,255);stroke-width:1"/><polygon points="13.631245,151.45018 16.472672,149.46059 14.483073,146.61916 11.6416445,148.60873 " style="fill:#EEEEEE;stroke:rgb(0,0,255);stroke-width:1"/><polygon points="13.489174,151.54965 16.323507,149.49039 14.264233,146.65605 11.429897,148.71532 " style="fill:#EEEEEE;stroke:rgb(0,0,255);stroke-width:1"/><polygon points="13.347457,151.65262 16.173399,149.52312 14.043888,146.69716 11.217944,148.82668 " style="fill:#EEEEEE;stroke:rgb(0,0,255);stroke-width:1"/><polygon points="13.206159,151.7591 16.022388,149.5588 13.822099,146.74257 11.005866,148.94286 " style="fill:#EEEEEE;stroke:rgb(0,0,255);stroke-width:1"/><polygon points="13.065348,151.86911 15.8705225,149.59752 13.598927,146.79233 10.793748,149.06392 " style="fill:#EEEEEE;stroke:rgb(0,0,255);stroke-width:1"/><polygon points="12.925088,151.9827 15.717842,149.63928 13.374433,146.84653 10.581676,149.18993 " style="fill:#EEEEEE;stroke:rgb(0,0,255);stroke-width:1"/><polygon points="12.785451,152.09985 15.564396,149.68416 13.1486845,146.9052 10.369737,149.3209 " style="fill:#EEEEEE;stroke:rgb(0,0,255);stroke-width:1"/><polygon points="12.646503,152.22064 15.41023,149.73216 12.921748,146.96843 10.158019,149.45691 " style="fill:#EEEEEE;stroke:rgb(0,0,255);stroke-width:1"/><polygon points="12.508316,152.34506 15.255391,149.78337 12.693691,147.03629 9.946614,149.59798 " style="fill:#EEEEEE;stroke:rgb(0,0,255);stroke-width:1"/><polygon points="12.370961,152.47314 15.099931,149.83781 12.464585,147.10884 9.735614,149.74417 " style="fill:#EEEEEE;stroke:rgb(0,0,255);stroke-width:1"/><polygon points="12.234512,152.60492 14.9439,149.89552 12.234502,147.18613 9.525113,149.89552 " style="fill:#EEEEEE;stroke:rgb(0,0,255);stroke-width:1"/><polygon points="12.099043,152.74039 14.787349,149.95656 12.003516,147.26825 9.315208,150.05208 " style="fill:#EEEEEE;stroke:rgb(0,0,255);stroke-width:1"/><polygon points="11.964628,152.87958 14.630332,150.02095 11.771704,147.35524 9.105996,150.21387 " style="fill:#EEEEEE;stroke:rgb(0,0,255);stroke-width:1"/><polygon points="11.831343,153.0225 14.472906,150.08876 11.539143,147.44717 8.897576,150.38094 " style="fill:#EEEEEE;stroke:rgb(0,0,255);stroke-width:1"/><polygon points="11.6992655,153.1692 14.3151245,150.15999 11.305911,147.54413 8.690048,150.55333 " style="fill:#EEEEEE;stroke:rgb(0,0,255);stroke-width:1"/><polygon points="11.568473,153.31966 14.157044,150.23471 11.072092,147.64613 8.483516,150.73108 " style="fill:#EEEEEE;stroke:rgb(0,0,255);stroke-width:1"/><polygon points="11.439043,153.4739 13.998725,150.31296 10.8377695,147.75327 8.278083,150.91422 " style="fill:#EEEEEE;stroke:rgb(0,0,255);stroke-width:1"/><polygon points="11.311059,153.63196 13.840225,150.39476 10.603027,147.86559 8.073855,151.10278 " style="fill:#EEEEEE;stroke:rgb(0,0,255);stroke-width:1"/><polygon points="11.184601,153.79381 13.681607,150.48016 10.367954,147.98315 7.870942,151.2968 " style="fill:#EEEEEE;stroke:rgb(0,0,255);stroke-width:1"/><polygon points="11.059751,153.95949 13.522933,150.5692 10.132638,148.10602 7.6694508,151.4963 " style="fill:#EEEEEE;stroke:rgb(0,0,255);stroke-width:1"/><polygon points="10.936591,154.12901 13.364266,150.66193 9.897172,148.23424 7.469492,151.70132 " style="fill:#EEEEEE;stroke:rgb(0,0,255);stroke-width:1"/><polygon points="10.8152075,154.30235 13.205671,150.75835 9.661647,148.36787 7.2711773,151.91188 " style="fill:#EEEEEE;stroke:rgb(0,0,255);stroke-width:1"/><polygon points="10.695684,154.47957 13.0472145,150.8585 9.426159,148.50697 7.074623,152.12802 " style="fill:#EEEEEE;stroke:rgb(0,0,255);stroke-width:1"/><polygon points="10.578108,154.66061 12.888963,150.96246 9.190804,148.6516 6.879944,152.34975 " style="fill:#EEEEEE;stroke:rgb(0,0,255);stroke-width:1"/><polygon points="10.462565,154.84552 12.730986,151.07022 8.95568,148.80179 6.687254,152.57709 " style="fill:#EEEEEE;stroke:rgb(0,0,255);stroke-width:1"/><polygon points="10.349144,155.03429 12.573353,151.18182 8.72089,148.95761 6.4966755,152.81006 " style="fill:#EEEEEE;stroke:rgb(0,0,255);stroke-width:1"/><polygon points="10.237932,155.22691 12.416135,151.29732 8.486534,149.1191 6.3083267,153.04869 " style="fill:#EEEEEE;stroke:rgb(0,0,255);stroke-width:1"/><polygon points="10.129022,155.42339 12.259404,151.4167 8.252717,149.28632 6.1223297,153.293 " style="fill:#EEEEEE;stroke:rgb(0,0,255);stroke-width:1"/><polygon points="10.022502,155.62372 12.103235,151.54004 8.019545,149.45929 5.9388084,153.54298 " style="fill:#EEEEEE;stroke:rgb(0,0,255);stroke-width:1"/><polygon points="9.918465,155.82791 11.947702,151.66734 7.7871256,149.63808 5.757885,153.79866 " style="fill:#EEEEEE;stroke:rgb(0,0,255);stroke-width:1"/><polygon points="9.817002,156.03593 11.792883,151.79863 7.5555696,149.82274 5.579687,154.06004 " style="fill:#EEEEEE;stroke:rgb(0,0,255);stroke-width:1"/><polygon points="9.718208,156.2478 11.638853,151.93394 7.3249893,150.01329 5.4043427,154.32715 " style="fill:#EEEEEE;stroke:rgb(0,0,255);stroke-width:1"/><polygon points="9.622176,156.46349 11.485692,152.0733 7.095499,150.20978 5.2319813,154.59996 " style="fill:#EEEEEE;stroke:rgb(0,0,255);stroke-width:1"/><polygon points="9.528999,156.683 11.333479,152.21674 6.8672104,150.41225 5.062731,154.87851 " style="fill:#EEEEEE;stroke:rgb(0,0,255);stroke-width:1"/><polygon points="9.438775,156.90631 11.182296,152.36427 6.6402435,150.62074 4.896723,155.16278 " style="fill:#EEEEEE;stroke:rgb(0,0,255);stroke-width:1"/><polygon points="9.3516,157.1334 11.032225,152.51591 6.4147167,150.83528 4.734091,155.45277 " style="fill:#EEEEEE;stroke:rgb(0,0,255);stroke-width:1"/><polygon points="9.267569,157.36429 10.883348,152.6717 6.19075,151.05591 4.5749683,155.7485 " style="fill:#EEEEEE;stroke:rgb(0,0,255);stroke-width:1"/><polygon points="9.186779,157.59892 10.735753,152.83165 5.9684696,151.28265 4.4194927,156.04993 " style="fill:#EEEEEE;stroke:rgb(0,0,255);stroke-width:1"/><polygon points="9.10933,157.83728 10.589523,152.99577 5.7479954,151.51556 4.2677994,156.35707 " style="fill:#EEEEEE;stroke:rgb(0,0,255);stroke-width:1"/><polygon points="9.03532,158.07936 10.444747,153.16408 5.529457,151.75464 4.1200275,156.66992 " style="fill:#EEEEEE;stroke:rgb(0,0,255);stroke-width:1"/><polygon points="8.9648485,158.32512 10.301512,153.33661 5.3129807,151.99992 3.9763126,156.98845 " style="fill:#EEEEEE;stroke:rgb(0,0,255);stroke-width:1"/><polygon points="8.898015,158.57454 10.159906,153.51335 5.0986977,152.25145 3.8367996,157.31265 " style="fill:#EEEEEE;stroke:rgb(0,0,255);stroke-width:1"/><polygon points="8.834921,158.8276 10.020022,153.69434 4.886736,152.50922 3.7016277,157.64249 " style="fill:#EEEEEE;stroke:rgb(0,0,255);stroke-width:1"/><polygon points="8.775665,159.08426 9.881952,153.87956 4.6772327,152.77327 3.57094,157.97797 " style="fill:#EEEEEE;stroke:rgb(0,0,255);stroke-width:1"/><polygon points="8.72035,159.3445 9.745788,154.06905 4.4703217,153.0436 3.4448776,158.31906 " style="fill:#EEEEEE;stroke:rgb(0,0,255);stroke-width:1"/><polygon points="8.669078,159.60828 9.611622,154.2628 4.266136,153.32025 3.3235855,158.66573 " style="fill:#EEEEEE;stroke:rgb(0,0,255);stroke-width:1"/><polygon points="8.621949,159.87555 9.47955,154.46083 4.0648193,153.60323 3.2072105,159.01794 " style="fill:#EEEEEE;stroke:rgb(0,0,255);stroke-width:1"/><polygon points="8.579068,160.14629 9.349669,154.66313 3.8665066,153.89252 3.0958977,159.37567 " style="fill:#EEEEEE;stroke:rgb(0,0,255);stroke-width:1"/><polygon points="8.540538,160.42044 9.222075,154.86972 3.671341,154.18817 2.9897938,159.73889 " style="fill:#EEEEEE;stroke:rgb(0,0,255);stroke-width:1"/><polygon points="8.50646,160.69797 9.096867,155.0806 3.4794636,154.49017 2.8890495,160.10756 " style="fill:#EEEEEE;stroke:rgb(0,0,255);stroke-width:1"/><polygon points="8.476939,160.97884 8.974142,155.29575 3.2910233,154.79852 2.7938118,160.48164 " style="fill:#EEEEEE;stroke:rgb(0,0,255);stroke-width:1"/><polygon points="8.452079,161.263 8.854002,155.51518 3.106161,155.11325 2.7042294,160.86107 " style="fill:#EEEEEE;stroke:rgb(0,0,255);stroke-width:1"/><polygon points="8.431982,161.55038 8.7365465,155.73889 2.925026,155.43431 2.6204548,161.24582 " style="fill:#EEEEEE;stroke:rgb(0,0,255);stroke-width:1"/><polygon points="8.416753,161.84096 8.621879,155.96687 2.7477665,155.76175 2.542635,161.63583 " style="fill:#EEEEEE;stroke:rgb(0,0,255);stroke-width:1"/><polygon points="8.406497,162.13467 8.510099,156.19913 2.5745335,156.09552 2.4709244,162.03107 " style="fill:#EEEEEE;stroke:rgb(0,0,255);stroke-width:1"/><polygon points="8.401317,162.43144 8.401314,156.43564 2.4054794,156.43562 2.4054737,162.43144 " style="fill:#EEEEEE;stroke:rgb(0,0,255);stroke-width:1"/><polygon points="8.401317,162.73123 8.295626,156.67639 2.240755,156.78207 2.3464375,162.83693 " style="fill:#EEEEEE;stroke:rgb(0,0,255);stroke-width:1"/><polygon points="8.406601,163.03398 8.193141,156.92137 2.0805168,157.13483 2.2939663,163.24744 " style="fill:#EEEEEE;stroke:rgb(0,0,255);stroke-width:1"/><polygon points="8.4172735,163.3396 8.093965,157.17058 1.9249172,157.49388 2.2482147,163.66292 " style="fill:#EEEEEE;stroke:rgb(0,0,255);stroke-width:1"/><polygon points="8.433438,163.64806 7.998205,157.424 1.7741165,157.85922 2.2093372,164.0833 " style="fill:#EEEEEE;stroke:rgb(0,0,255);stroke-width:1"/><polygon points="8.455199,163.95926 7.9059696,157.68158 1.6282711,158.2308 2.1774864,164.5085 " style="fill:#EEEEEE;stroke:rgb(0,0,255);stroke-width:1"/><polygon points="8.48266,164.27315 7.8173656,157.94334 1.4875374,158.60863 2.1528187,164.93845 " style="fill:#EEEEEE;stroke:rgb(0,0,255);stroke-width:1"/><polygon points="8.515924,164.58963 7.732504,158.20923 1.3520794,158.99265 2.1354866,165.37306 " style="fill:#EEEEEE;stroke:rgb(0,0,255);stroke-width:1"/><polygon points="8.555095,164.90866 7.651493,158.47923 1.2220554,159.38283 2.1256447,165.81226 " style="fill:#EEEEEE;stroke:rgb(0,0,255);stroke-width:1"/><polygon points="8.600274,165.23013 7.574445,158.75333 1.0976295,159.77916 2.1234474,166.25597 " style="fill:#EEEEEE;stroke:rgb(0,0,255);stroke-width:1"/><polygon points="8.651565,165.55397 7.5014687,159.03148 0.97896385,160.18156 2.1290474,166.70407 " style="fill:#EEEEEE;stroke:rgb(0,0,255);stroke-width:1"/><polygon points="8.709068,165.8801 7.4326763,159.31366 0.8662224,160.59004 2.142603,167.15648 " style="fill:#EEEEEE;stroke:rgb(0,0,255);stroke-width:1"/><polygon points="8.772886,166.2084 7.368181,159.59982 0.7595711,161.00452 2.1642647,167.61313 " style="fill:#EEEEEE;stroke:rgb(0,0,255);stroke-width:1"/><polygon points="8.843122,166.53883 7.308096,159.88994 0.6591759,161.42496 2.194191,168.07387 " style="fill:#EEEEEE;stroke:rgb(0,0,255);stroke-width:1"/><polygon points="8.919872,166.87128 7.252533,160.18398 0.5652027,161.85132 2.2325325,168.53864 " style="fill:#EEEEEE;stroke:rgb(0,0,255);stroke-width:1"/><polygon points="9.003238,167.20564 7.201605,160.48189 0.47782135,162.28351 2.2794437,169.0073 " style="fill:#EEEEEE;stroke:rgb(0,0,255);stroke-width:1"/><polygon points="9.093318,167.54184 7.155426,160.78363 0.39719582,162.72151 2.3350773,169.47974 " style="fill:#EEEEEE;stroke:rgb(0,0,255);stroke-width:1"/><polygon points="9.190212,167.87975 7.114113,161.08916 0.32349968,163.16525 2.3995876,169.95586 " style="fill:#EEEEEE;stroke:rgb(0,0,255);stroke-width:1"/><polygon points="9.294017,168.21927 7.077778,161.39842 0.25689888,163.61465 2.4731255,170.43552 " style="fill:#EEEEEE;stroke:rgb(0,0,255);stroke-width:1"/><polygon points="9.404828,168.56032 7.0465374,161.71136 0.19756317,164.06966 2.5558434,170.91862 " style="fill:#EEEEEE;stroke:rgb(0,0,255);stroke-width:1"/><polygon points="9.522741,168.90277 7.020506,162.02795 0.14566612,164.53018 2.64789,171.40501 " style="fill:#EEEEEE;stroke:rgb(0,0,255);stroke-width:1"/><polygon points="9.647852,169.2465 6.999798,162.34811 0.10137367,164.99615 2.7494183,171.89458 " style="fill:#EEEEEE;stroke:rgb(0,0,255);stroke-width:1"/><polygon points="9.780253,169.59143 6.9845295,162.67178 6.485748e-2,165.4675 2.8605747,172.38716 " style="fill:#EEEEEE;stroke:rgb(0,0,255);stroke-width:1"/><polygon points="9.920039,169.93741 6.9748173,162.99892 3.6291122e-2,165.94414 2.9815083,172.88264 " style="fill:#EEEEEE;stroke:rgb(0,0,255);stroke-width:1"/><polygon points="10.0673,170.28433 6.9707756,163.32944 1.5846252e-2,166.42596 3.1123657,173.38087 " style="fill:#EEEEEE;stroke:rgb(0,0,255);stroke-width:1"/><polygon points="10.222125,170.63208 6.972521,163.66328 3.692627e-3,166.91289 3.253294,173.88171 " style="fill:#EEEEEE;stroke:rgb(0,0,255);stroke-width:1"/><polygon points="10.384604,170.98053 6.9801655,164.00038 0.0,167.40483 3.40444,174.38498 " style="fill:#EEEEEE;stroke:rgb(0,0,255);stroke-width:1"/><polygon points="10.554826,171.32953 6.993828,164.34067 4.9438477e-3,167.90169 3.5659447,174.89055 " style="fill:#EEEEEE;stroke:rgb(0,0,255);stroke-width:1"/><polygon points="10.732875,171.67897 7.0136223,164.68408 1.8695831e-2,168.40334 3.7379513,175.39825 " style="fill:#EEEEEE;stroke:rgb(0,0,255);stroke-width:1"/><polygon points="10.918838,172.02872 7.039665,165.0305 4.1425705e-2,168.90968 3.920599,175.90793 " style="fill:#EEEEEE;stroke:rgb(0,0,255);stroke-width:1"/><polygon points="11.112796,172.37863 7.072069,165.37988 7.330322e-2,169.42062 4.114029,176.41939 " style="fill:#EEEEEE;stroke:rgb(0,0,255);stroke-width:1"/><polygon points="11.314832,172.72858 7.1109524,165.73215 0.11450195,169.93602 4.3183804,176.93248 " style="fill:#EEEEEE;stroke:rgb(0,0,255);stroke-width:1"/><polygon points="11.525025,173.0784 7.1564274,166.08717 0.16518974,170.45578 4.5337887,177.44702 " style="fill:#EEEEEE;stroke:rgb(0,0,255);stroke-width:1"/><polygon points="11.743455,173.42795 7.2086086,166.4449 0.22553825,170.97975 4.7603855,177.96283 " style="fill:#EEEEEE;stroke:rgb(0,0,255);stroke-width:1"/><polygon points="11.970198,173.7771 7.2676086,166.80524 0.29571915,171.50783 4.9983063,178.47972 " style="fill:#EEEEEE;stroke:rgb(0,0,255);stroke-width:1"/><polygon points="12.205326,174.1257 7.333542,167.16808 0.37590027,172.03987 5.2476807,178.99751 " style="fill:#EEEEEE;stroke:rgb(0,0,255);stroke-width:1"/><polygon points="12.4489155,174.47359 7.406521,167.53333 0.46624756,172.57573 5.5086384,179.516 " style="fill:#EEEEEE;stroke:rgb(0,0,255);stroke-width:1"/><polygon points="12.701035,174.8206 7.486656,167.90088 0.56692886,173.11526 5.7813053,180.035 " style="fill:#EEEEEE;stroke:rgb(0,0,255);stroke-width:1"/><polygon points="12.961753,175.16658 7.5740595,168.27065 0.67811394,173.65836 6.0658054,180.5543 " style="fill:#EEEEEE;stroke:rgb(0,0,255);stroke-width:1"/><polygon points="13.231137,175.51138 7.6688404,168.64252 0.7999649,174.20482 6.362261,181.0737 " style="fill:#EEEEEE;stroke:rgb(0,0,255);stroke-width:1"/><polygon points="13.509252,175.85483 7.7711096,169.01637 0.9326496,174.75452 6.670788,181.593 " style="fill:#EEEEEE;stroke:rgb(0,0,255);stroke-width:1"/><polygon points="13.796159,176.19675 7.8809767,169.3921 1.0763302,175.3073 6.9915085,182.11195 " style="fill:#EEEEEE;stroke:rgb(0,0,255);stroke-width:1"/><polygon points="14.091917,176.53699 7.9985476,169.7696 1.2311668,175.86299 7.3245335,182.63039 " style="fill:#EEEEEE;stroke:rgb(0,0,255);stroke-width:1"/><polygon points="14.3965845,176.87535 8.123931,170.14874 1.3973255,176.42142 7.669977,183.14804 " style="fill:#EEEEEE;stroke:rgb(0,0,255);stroke-width:1"/><polygon points="14.7102165,177.21167 8.257233,170.52942 1.5749626,176.9824 8.027946,183.6647 " style="fill:#EEEEEE;stroke:rgb(0,0,255);stroke-width:1"/><polygon points="15.032865,177.54579 8.398556,170.91148 1.7642384,177.5458 8.398547,184.18013 " style="fill:#EEEEEE;stroke:rgb(0,0,255);stroke-width:1"/><polygon points="15.364579,177.8775 8.548006,171.29482 1.9653091,178.1114 8.781883,184.69412 " style="fill:#EEEEEE;stroke:rgb(0,0,255);stroke-width:1"/><polygon points="15.705406,178.20663 8.705685,171.67929 2.1783276,178.67903 9.178052,185.2064 " style="fill:#EEEEEE;stroke:rgb(0,0,255);stroke-width:1"/><polygon points="16.055393,178.533 8.871693,172.06477 2.40345,179.24849 9.587152,185.71675 " style="fill:#EEEEEE;stroke:rgb(0,0,255);stroke-width:1"/><polygon points="16.414577,178.85641 9.046129,172.45113 2.6408272,179.8196 10.009276,186.22491 " style="fill:#EEEEEE;stroke:rgb(0,0,255);stroke-width:1"/><polygon points="16.782997,179.17668 9.2290945,172.8382 2.8906097,180.39214 10.444513,186.73062 " style="fill:#EEEEEE;stroke:rgb(0,0,255);stroke-width:1"/><polygon points="17.160692,179.4936 9.420684,173.22588 3.1529427,180.9659 10.892951,187.23366 " style="fill:#EEEEEE;stroke:rgb(0,0,255);stroke-width:1"/><polygon points="17.547693,179.807 9.620992,173.61398 3.4279728,181.5407 11.354671,187.73373 " style="fill:#EEEEEE;stroke:rgb(0,0,255);stroke-width:1"/><polygon points="17.944027,180.11665 9.830114,174.00238 3.7158413,182.1163 11.829752,188.2306 " style="fill:#EEEEEE;stroke:rgb(0,0,255);stroke-width:1"/><polygon points="18.349722,180.42236 10.048142,174.39091 4.016691,182.6925 12.318269,188.724 " style="fill:#EEEEEE;stroke:rgb(0,0,255);stroke-width:1"/><polygon points="18.764801,180.72394 10.275166,174.77943 4.33066,183.26909 12.820292,189.21362 " style="fill:#EEEEEE;stroke:rgb(0,0,255);stroke-width:1"/><polygon points="19.189281,181.02116 10.511272,175.16777 4.6578827,183.8458 13.33589,189.69922 " style="fill:#EEEEEE;stroke:rgb(0,0,255);stroke-width:1"/><polygon points="19.62318,181.31384 10.75655,175.55579 4.998495,184.42242 13.865124,190.18051 " style="fill:#EEEEEE;stroke:rgb(0,0,255);stroke-width:1"/><polygon points="20.066511,181.60175 11.011081,175.94328 5.352623,184.99873 14.4080515,190.65723 " style="fill:#EEEEEE;stroke:rgb(0,0,255);stroke-width:1"/><polygon points="20.519283,181.88466 11.27495,176.33011 5.720396,185.57446 14.964728,191.12904 " style="fill:#EEEEEE;stroke:rgb(0,0,255);stroke-width:1"/><polygon points="20.981499,182.16238 11.548235,176.7161 6.1019382,186.14938 15.535204,191.5957 " style="fill:#EEEEEE;stroke:rgb(0,0,255);stroke-width:1"/><polygon points="21.453161,182.43471 11.831015,177.10107 6.4973717,186.72324 16.11952,192.0569 " style="fill:#EEEEEE;stroke:rgb(0,0,255);stroke-width:1"/><polygon points="21.934267,182.70139 12.123364,177.48485 6.9068165,187.29576 16.71772,192.51234 " style="fill:#EEEEEE;stroke:rgb(0,0,255);stroke-width:1"/><polygon points="22.424812,182.96222 12.425357,177.86725 7.3303833,187.86671 17.329838,192.96173 " style="fill:#EEEEEE;stroke:rgb(0,0,255);stroke-width:1"/><polygon points="22.924784,183.21696 12.737063,178.2481 7.7681847,188.43582 17.955906,193.40474 " style="fill:#EEEEEE;stroke:rgb(0,0,255);stroke-width:1"/><polygon points="23.43417,183.46541 13.058553,178.62718 8.220327,189.00282 18.595945,193.84108 " style="fill:#EEEEEE;stroke:rgb(0,0,255);stroke-width:1"/><polygon points="23.95295,183.70732 13.389891,179.00435 8.686916,189.56743 19.249979,194.27043 " style="fill:#EEEEEE;stroke:rgb(0,0,255);stroke-width:1"/><polygon points="24.481102,183.94247 13.731139,179.3794 9.168053,190.12936 19.91802,194.69249 " style="fill:#EEEEEE;stroke:rgb(0,0,255);stroke-width:1"/><polygon points="25.0186,184.17062 14.082357,179.7521 9.663831,190.68835 20.600079,195.10693 " style="fill:#EEEEEE;stroke:rgb(0,0,255);stroke-width:1"/><polygon points="25.56541,184.39156 14.4436035,180.1223 10.174344,191.24413 21.29616,195.51341 " style="fill:#EEEEEE;stroke:rgb(0,0,255);stroke-width:1"/><polygon points="26.121502,184.60503 14.814932,180.48978 10.69968,191.79636 22.006258,195.91164 " style="fill:#EEEEEE;stroke:rgb(0,0,255);stroke-width:1"/><polygon points="26.686829,184.81079 15.196394,180.85431 11.2399235,192.34476 22.730366,196.30127 " style="fill:#EEEEEE;stroke:rgb(0,0,255);stroke-width:1"/><polygon points="27.26135,185.0086 15.5880375,181.21573 11.795153,192.88905 23.468473,196.68198 " style="fill:#EEEEEE;stroke:rgb(0,0,255);stroke-width:1"/><polygon points="27.845016,185.19826 15.989908,181.57379 12.365442,193.42891 24.220558,197.0534 " style="fill:#EEEEEE;stroke:rgb(0,0,255);stroke-width:1"/><polygon points="28.43777,185.37949 16.402048,181.9283 12.950864,193.96404 24.986597,197.41525 " style="fill:#EEEEEE;stroke:rgb(0,0,255);stroke-width:1"/><polygon points="29.039557,185.55205 16.824493,182.27902 13.551483,194.49411 25.766556,197.76715 " style="fill:#EEEEEE;stroke:rgb(0,0,255);stroke-width:1"/><polygon points="29.650309,185.7157 17.257282,182.62576 14.167359,195.01881 26.560396,198.10876 " style="fill:#EEEEEE;stroke:rgb(0,0,255);stroke-width:1"/><polygon points="30.269958,185.8702 17.700443,182.96829 14.798547,195.53783 27.368076,198.43976 " style="fill:#EEEEEE;stroke:rgb(0,0,255);stroke-width:1"/><polygon points="30.898436,186.01529 18.154005,183.30638 15.445099,196.05083 28.18954,198.75977 " style="fill:#EEEEEE;stroke:rgb(0,0,255);stroke-width:1"/><polygon points="31.535656,186.15073 18.617992,183.6398 16.10706,196.55748 29.024738,199.06845 " style="fill:#EEEEEE;stroke:rgb(0,0,255);stroke-width:1"/><polygon points="32.181538,186.27628 19.092426,183.96832 16.784468,197.05745 29.873596,199.36545 " style="fill:#EEEEEE;stroke:rgb(0,0,255);stroke-width:1"/><polygon points="32.835995,186.39168 19.57732,184.29172 17.47736,197.55042 30.73605,199.65039 " style="fill:#EEEEEE;stroke:rgb(0,0,255);stroke-width:1"/><polygon points="33.498928,186.49667 20.072691,184.60976 18.185762,198.03601 31.612017,199.92296 " style="fill:#EEEEEE;stroke:rgb(0,0,255);stroke-width:1"/><polygon points="34.17024,186.59103 20.578545,184.92218 18.909702,198.5139 32.50141,200.18277 " style="fill:#EEEEEE;stroke:rgb(0,0,255);stroke-width:1"/><polygon points="34.849823,186.67447 21.094887,185.22878 19.64919,198.98373 33.40415,200.42946 " style="fill:#EEEEEE;stroke:rgb(0,0,255);stroke-width:1"/><polygon points="35.537567,186.74677 21.621716,185.52928 20.404243,199.44516 34.320118,200.66266 " style="fill:#EEEEEE;stroke:rgb(0,0,255);stroke-width:1"/><polygon points="36.23336,186.80763 22.15903,185.82347 21.174866,199.89781 35.249218,200.88202 " style="fill:#EEEEEE;stroke:rgb(0,0,255);stroke-width:1"/><polygon points="36.937077,186.85684 22.706821,186.11108 21.961052,200.34134 36.191334,201.08716 " style="fill:#EEEEEE;stroke:rgb(0,0,255);stroke-width:1"/><polygon points="37.64859,186.89413 23.265074,186.39186 22.762798,200.77539 37.14634,201.27771 " style="fill:#EEEEEE;stroke:rgb(0,0,255);stroke-width:1"/><polygon points="38.367767,186.91925 23.833773,186.66557 23.58009,201.19957 38.11411,201.4533 " style="fill:#EEEEEE;stroke:rgb(0,0,255);stroke-width:1"/><polygon points="39.094467,186.93193 24.412897,186.93195 24.412907,201.61353 39.0945,201.61356 " style="fill:#EEEEEE;stroke:rgb(0,0,255);stroke-width:1"/><polygon points="39.828545,186.93193 25.002419,187.19073 25.261219,202.01688 40.08737,201.75812 " style="fill:#EEEEEE;stroke:rgb(0,0,255);stroke-width:1"/><polygon points="40.569847,186.919 25.602306,187.44168 26.124992,202.40924 41.092567,201.8866 " style="fill:#EEEEEE;stroke:rgb(0,0,255);stroke-width:1"/><polygon points="41.318222,186.89287 26.212524,187.68454 27.004189,202.79024 42.109924,201.99863 " style="fill:#EEEEEE;stroke:rgb(0,0,255);stroke-width:1"/><polygon points="42.07351,186.85329 26.83303,187.919 27.898758,203.1595 43.139275,202.09381 " style="fill:#EEEEEE;stroke:rgb(0,0,255);stroke-width:1"/><polygon points="42.835533,186.8 27.46378,188.14487 28.808643,203.51663 44.180435,202.17181 " style="fill:#EEEEEE;stroke:rgb(0,0,255);stroke-width:1"/><polygon points="43.60412,186.73276 28.104721,188.36182 29.733784,203.86124 45.233223,202.23221 " style="fill:#EEEEEE;stroke:rgb(0,0,255);stroke-width:1"/><polygon points="44.37909,186.6513 28.755796,188.56963 30.674107,204.19293 46.297443,202.27466 " style="fill:#EEEEEE;stroke:rgb(0,0,255);stroke-width:1"/><polygon points="45.160255,186.55539 29.416946,188.76799 31.629536,204.5113 47.37289,202.29875 " style="fill:#EEEEEE;stroke:rgb(0,0,255);stroke-width:1"/><polygon points="45.947426,186.44476 30.0881,188.95665 32.599983,204.81598 48.45935,202.30414 " style="fill:#EEEEEE;stroke:rgb(0,0,255);stroke-width:1"/><polygon points="46.74039,186.31918 30.769192,189.13535 33.585358,205.10655 49.5566,202.29042 " style="fill:#EEEEEE;stroke:rgb(0,0,255);stroke-width:1"/><polygon points="47.53895,186.17838 31.460136,189.30379 34.585556,205.38261 50.664413,202.25723 " style="fill:#EEEEEE;stroke:rgb(0,0,255);stroke-width:1"/><polygon points="48.342896,186.0221 32.160854,189.46172 35.600468,205.64377 51.782547,202.2042 " style="fill:#EEEEEE;stroke:rgb(0,0,255);stroke-width:1"/><polygon points="49.151997,185.85013 32.871254,189.60884 36.629974,205.8896 52.91076,202.1309 " style="fill:#EEEEEE;stroke:rgb(0,0,255);stroke-width:1"/><polygon points="49.966034,185.66219 33.591244,189.7449 37.67395,206.1197 54.048786,202.03702 " style="fill:#EEEEEE;stroke:rgb(0,0,255);stroke-width:1"/><polygon points="50.784775,185.45805 34.32072,189.8696 38.732265,206.33366 55.196365,201.92215 " style="fill:#EEEEEE;stroke:rgb(0,0,255);stroke-width:1"/><polygon points="51.60798,185.23749 35.059578,189.98267 39.80477,206.53108 56.353214,201.78592 " style="fill:#EEEEEE;stroke:rgb(0,0,255);stroke-width:1"/><polygon points="52.4354,185.00023 35.807705,190.08383 40.891315,206.71155 57.519054,201.62796 " style="fill:#EEEEEE;stroke:rgb(0,0,255);stroke-width:1"/><polygon points="53.266785,184.74605 36.56498,190.1728 41.99174,206.87463 58.69359,201.44789 " style="fill:#EEEEEE;stroke:rgb(0,0,255);stroke-width:1"/><polygon points="54.101875,184.47472 37.331276,190.2493 43.105877,207.01991 59.876514,201.24536 " style="fill:#EEEEEE;stroke:rgb(0,0,255);stroke-width:1"/><polygon points="54.940407,184.18599 38.10647,190.31305 44.233543,207.147 61.06752,201.01996 " style="fill:#EEEEEE;stroke:rgb(0,0,255);stroke-width:1"/><polygon points="55.782104,183.87964 38.89042,190.36375 45.37455,207.25546 62.266277,200.77136 " style="fill:#EEEEEE;stroke:rgb(0,0,255);stroke-width:1"/><polygon points="56.62669,183.55542 39.682983,190.40115 46.5287,207.34486 63.472454,200.49918 " style="fill:#EEEEEE;stroke:rgb(0,0,255);stroke-width:1"/><polygon points="57.47388,183.21315 40.48401,190.42493 47.6958,207.41481 64.685715,200.20306 " style="fill:#EEEEEE;stroke:rgb(0,0,255);stroke-width:1"/><polygon points="58.32338,182.85255 41.29334,190.43483 48.875618,207.46487 65.90569,199.88263 " style="fill:#EEEEEE;stroke:rgb(0,0,255);stroke-width:1"/><polygon points="59.174885,182.47345 42.11081,190.43057 50.067936,207.49464 67.132034,199.53755 " style="fill:#EEEEEE;stroke:rgb(0,0,255);stroke-width:1"/><polygon points="60.028088,182.07559 42.936256,190.41183 51.27252,207.50368 68.36438,199.16745 " style="fill:#EEEEEE;stroke:rgb(0,0,255);stroke-width:1"/><polygon points="60.88268,181.65878 43.7695,190.37839 52.48912,207.49158 69.602325,198.77199 " style="fill:#EEEEEE;stroke:rgb(0,0,255);stroke-width:1"/><polygon points="61.73834,181.22281 44.610363,190.32993 53.71749,207.4579 70.8455,198.3508 " style="fill:#EEEEEE;stroke:rgb(0,0,255);stroke-width:1"/><polygon points="62.594738,180.76744 45.45865,190.26614 54.95736,207.40224 72.09348,197.90356 " style="fill:#EEEEEE;stroke:rgb(0,0,255);stroke-width:1"/><polygon points="63.45154,180.29251 46.314163,190.1868 56.20845,207.32419 73.34587,197.42993 " style="fill:#EEEEEE;stroke:rgb(0,0,255);stroke-width:1"/><polygon points="64.30841,179.7978 47.176704,190.09158 57.47049,207.2233 74.60224,196.92955 " style="fill:#EEEEEE;stroke:rgb(0,0,255);stroke-width:1"/><polygon points="65.165,179.28311 48.04606,189.98024 58.743176,207.09918 75.86217,196.4021 " style="fill:#EEEEEE;stroke:rgb(0,0,255);stroke-width:1"/><polygon points="66.02095,178.74826 48.922005,189.85246 60.026203,206.95142 77.1252,195.84724 " style="fill:#EEEEEE;stroke:rgb(0,0,255);stroke-width:1"/><polygon points="66.8759,178.19305 49.80433,189.708 61.31926,206.77957 78.39088,195.26466 " style="fill:#EEEEEE;stroke:rgb(0,0,255);stroke-width:1"/><polygon points="67.72948,177.61731 50.692795,189.54654 62.62202,206.58324 79.65875,194.65404 " style="fill:#EEEEEE;stroke:rgb(0,0,255);stroke-width:1"/><polygon points="68.581314,177.02084 51.58716,189.36786 63.934147,206.362 80.92835,194.01505 " style="fill:#EEEEEE;stroke:rgb(0,0,255);stroke-width:1"/><polygon points="69.431015,176.4035 52.487183,189.17163 65.255295,206.11548 82.19919,193.34738 " style="fill:#EEEEEE;stroke:rgb(0,0,255);stroke-width:1"/><polygon points="70.27821,175.7651 53.39261,188.95761 66.585106,205.84323 83.470764,192.65074 " style="fill:#EEEEEE;stroke:rgb(0,0,255);stroke-width:1"/><polygon points="71.12249,175.10548 54.303173,188.72552 67.92321,205.54486 84.742584,191.92484 " style="fill:#EEEEEE;stroke:rgb(0,0,255);stroke-width:1"/><polygon points="71.963455,174.42448 55.218613,188.4751 69.269226,205.21997 86.01413,191.16936 " style="fill:#EEEEEE;stroke:rgb(0,0,255);stroke-width:1"/><polygon points="72.800705,173.72195 56.138657,188.20609 70.62277,204.86815 87.28488,190.38403 " style="fill:#EEEEEE;stroke:rgb(0,0,255);stroke-width:1"/><polygon points="73.633804,172.99774 57.063015,187.91818 71.983444,204.489 88.554306,189.56857 " style="fill:#EEEEEE;stroke:rgb(0,0,255);stroke-width:1"/><polygon points="74.46236,172.25172 57.991398,187.61118 73.35083,204.08214 89.82185,188.72272 " style="fill:#EEEEEE;stroke:rgb(0,0,255);stroke-width:1"/><polygon points="75.285904,171.48376 58.92351,187.28476 74.72451,203.64717 91.086975,187.84618 " style="fill:#EEEEEE;stroke:rgb(0,0,255);stroke-width:1"/><polygon points="76.104034,170.69371 59.859047,186.93872 76.10405,203.18372 92.34909,186.9387 " style="fill:#EEEEEE;stroke:rgb(0,0,255);stroke-width:1"/><polygon points="76.91628,169.88147 60.7977,186.57275 77.489,202.69136 93.607635,186.00006 " style="fill:#EEEEEE;stroke:rgb(0,0,255);stroke-width:1"/><polygon points="77.72221,169.0469 61.73914,186.18666 78.87891,202.16975 94.862045,185.02998 " style="fill:#EEEEEE;stroke:rgb(0,0,255);stroke-width:1"/><polygon points="78.52137,168.18991 62.683044,185.78017 80.2733,201.61852 96.111694,184.02824 " style="fill:#EEEEEE;stroke:rgb(0,0,255);stroke-width:1"/><polygon points="79.31329,167.3104 63.629078,185.35304 81.67172,201.03726 97.35599,182.99461 " style="fill:#EEEEEE;stroke:rgb(0,0,255);stroke-width:1"/><polygon points="80.0975,166.40826 64.5769,184.90503 83.073654,200.42564 98.594315,181.92888 " style="fill:#EEEEEE;stroke:rgb(0,0,255);stroke-width:1"/><polygon points="80.873535,165.48343 65.52615,184.43588 84.478615,199.7833 99.82605,180.83083 " style="fill:#EEEEEE;stroke:rgb(0,0,255);stroke-width:1"/><polygon points="81.640915,164.53581 66.47649,183.9454 85.886086,199.10985 101.05057,179.70024 " style="fill:#EEEEEE;stroke:rgb(0,0,255);stroke-width:1"/><polygon points="82.39914,163.56532 67.42752,183.43333 87.29554,198.40497 102.26721,178.53694 " style="fill:#EEEEEE;stroke:rgb(0,0,255);stroke-width:1"/><polygon points="83.14772,162.57193 68.37891,182.89948 88.70645,197.66829 103.47531,177.34074 " style="fill:#EEEEEE;stroke:rgb(0,0,255);stroke-width:1"/><polygon points="83.88616,161.55556 69.330246,182.34357 90.118256,196.8995 104.67424,176.11147 " style="fill:#EEEEEE;stroke:rgb(0,0,255);stroke-width:1"/><polygon points="84.61395,160.51616 70.28115,181.76544 91.530426,196.09825 105.8633,174.84897 " style="fill:#EEEEEE;stroke:rgb(0,0,255);stroke-width:1"/><polygon points="85.3306,159.45369 71.23123,181.16484 92.94238,195.26422 107.04181,173.55307 " style="fill:#EEEEEE;stroke:rgb(0,0,255);stroke-width:1"/><polygon points="86.03557,158.36813 72.18008,180.5416 94.35353,194.3971 108.209076,172.22363 " style="fill:#EEEEEE;stroke:rgb(0,0,255);stroke-width:1"/><polygon points="86.72835,157.25946 73.12728,179.89548 95.763275,193.49655 109.36441,170.86053 " style="fill:#EEEEEE;stroke:rgb(0,0,255);stroke-width:1"/><polygon points="87.4084,156.12767 74.07242,179.22629 97.171036,192.56229 110.507095,169.46365 " style="fill:#EEEEEE;stroke:rgb(0,0,255);stroke-width:1"/><polygon points="88.075195,154.97273 75.015076,178.53387 98.5762,191.59402 111.63641,168.03287 " style="fill:#EEEEEE;stroke:rgb(0,0,255);stroke-width:1"/><polygon points="88.72821,153.79468 75.9548,177.81801 99.97812,190.59145 112.75162,166.56808 " style="fill:#EEEEEE;stroke:rgb(0,0,255);stroke-width:1"/><polygon points="89.36688,152.5935 76.89117,177.07854 101.376175,189.55429 113.85199,165.06924 " style="fill:#EEEEEE;stroke:rgb(0,0,255);stroke-width:1"/><polygon points="89.99068,151.36926 77.823715,176.31528 102.769714,188.48228 114.93677,163.53622 " style="fill:#EEEEEE;stroke:rgb(0,0,255);stroke-width:1"/><polygon points="90.599014,150.12196 78.75199,175.52808 104.15808,187.37515 116.0052,161.96901 " style="fill:#EEEEEE;stroke:rgb(0,0,255);stroke-width:1"/><polygon points="91.191376,148.85165 79.67553,174.71675 105.5406,186.23264 117.05653,160.36751 " style="fill:#EEEEEE;stroke:rgb(0,0,255);stroke-width:1"/><polygon points="91.767166,147.55841 80.59386,173.88116 106.916595,185.05452 118.09,158.73172 " style="fill:#EEEEEE;stroke:rgb(0,0,255);stroke-width:1"/><polygon points="92.325836,146.24226 81.5065,173.02115 108.28537,183.84055 119.10478,157.06161 " style="fill:#EEEEEE;stroke:rgb(0,0,255);stroke-width:1"/><polygon points="92.866806,144.90332 82.41297,172.1366 109.646225,182.59048 120.10014,155.35716 " style="fill:#EEEEEE;stroke:rgb(0,0,255);stroke-width:1"/><polygon points="93.389496,143.54167 83.312775,171.22736 110.99843,181.30412 121.07524,153.6184 " style="fill:#EEEEEE;stroke:rgb(0,0,255);stroke-width:1"/><polygon points="93.893326,142.15738 84.205414,170.29329 112.34129,179.98126 122.02931,151.84532 " style="fill:#EEEEEE;stroke:rgb(0,0,255);stroke-width:1"/><polygon points="94.37773,140.7506 85.09038,169.33429 113.67406,178.6217 122.9615,150.03796 " style="fill:#EEEEEE;stroke:rgb(0,0,255);stroke-width:1"/><polygon points="94.8421,139.32141 85.96714,168.35025 114.99597,177.22528 123.87103,148.19638 " style="fill:#EEEEEE;stroke:rgb(0,0,255);stroke-width:1"/><polygon points="95.28586,137.86996 86.83519,167.34108 116.30629,175.7918 124.757034,146.32063 " style="fill:#EEEEEE;stroke:rgb(0,0,255);stroke-width:1"/><polygon points="95.70839,136.39641 87.694016,166.30666 117.60425,174.3211 125.61871,144.4108 " style="fill:#EEEEEE;stroke:rgb(0,0,255);stroke-width:1"/><polygon points="96.109116,134.90091 88.543045,165.24692 118.88905,172.81305 126.4552,142.46696 " style="fill:#EEEEEE;stroke:rgb(0,0,255);stroke-width:1"/><polygon points="96.48743,133.3836 89.381775,164.16177 120.15993,171.2675 127.26567,140.48926 " style="fill:#EEEEEE;stroke:rgb(0,0,255);stroke-width:1"/><polygon points="96.84271,131.8447 90.20961,163.05118 121.41608,169.68433 128.04926,138.47778 " style="fill:#EEEEEE;stroke:rgb(0,0,255);stroke-width:1"/><polygon points="97.17438,130.28438 91.02603,161.91504 122.65668,168.06343 128.8051,136.43271 " style="fill:#EEEEEE;stroke:rgb(0,0,255);stroke-width:1"/><polygon points="97.4818,128.70285 91.830475,160.75333 123.880936,166.40471 129.53235,134.35416 " style="fill:#EEEEEE;stroke:rgb(0,0,255);stroke-width:1"/><polygon points="97.76436,127.10033 92.622345,159.56598 125.088,164.70807 130.23012,132.24232 " style="fill:#EEEEEE;stroke:rgb(0,0,255);stroke-width:1"/><polygon points="98.02147,125.47704 93.40109,158.353 126.277054,162.97343 130.89752,130.0974 " style="fill:#EEEEEE;stroke:rgb(0,0,255);stroke-width:1"/><polygon points="98.25249,123.83325 94.16612,157.11435 127.447235,161.20078 131.53369,127.91959 " style="fill:#EEEEEE;stroke:rgb(0,0,255);stroke-width:1"/><polygon points="98.4568,122.1692 94.916855,155.85002 128.59769,159.39005 132.13774,125.70913 " style="fill:#EEEEEE;stroke:rgb(0,0,255);stroke-width:1"/><polygon points="98.633804,120.48515 95.652695,154.56 129.72755,157.54118 132.70877,123.466255 " style="fill:#EEEEEE;stroke:rgb(0,0,255);stroke-width:1"/><polygon points="98.78287,118.78142 96.37303,153.24432 130.83595,155.65422 133.24588,121.19123 " style="fill:#EEEEEE;stroke:rgb(0,0,255);stroke-width:1"/><polygon points="98.903366,117.05827 97.07727,151.90298 131.92201,153.72914 133.74818,118.88434 " style="fill:#EEEEEE;stroke:rgb(0,0,255);stroke-width:1"/><polygon points="98.994675,115.31604 97.76482,150.53603 132.98482,151.76595 134.21477,116.545876 " style="fill:#EEEEEE;stroke:rgb(0,0,255);stroke-width:1"/><polygon points="99.05617,113.55504 98.43501,149.14348 134.02348,149.76471 134.64473,114.17616 " style="fill:#EEEEEE;stroke:rgb(0,0,255);stroke-width:1"/><polygon points="99.087234,111.77562 99.08728,147.72542 135.03711,147.72543 135.03716,111.77554 " style="fill:#EEEEEE;stroke:rgb(0,0,255);stroke-width:1"/><polygon points="99.087234,109.97813 99.72098,146.28189 136.02477,145.64824 135.39113,109.34436 " style="fill:#EEEEEE;stroke:rgb(0,0,255);stroke-width:1"/><polygon points="99.05556,108.16294 100.335464,144.81299 136.98552,143.53316 135.70572,106.88301 " style="fill:#EEEEEE;stroke:rgb(0,0,255);stroke-width:1"/><polygon points="98.99158,106.330444 100.9301,143.31879 137.91847,141.38034 135.98004,104.39188 " style="fill:#EEEEEE;stroke:rgb(0,0,255);stroke-width:1"/><polygon points="98.89465,104.48102 101.50426,141.7994 138.82265,139.18987 136.21313,101.87138 " style="fill:#EEEEEE;stroke:rgb(0,0,255);stroke-width:1"/><polygon points="98.764175,102.6151 102.05728,140.25491 139.69713,136.96188 136.40411,99.32195 " style="fill:#EEEEEE;stroke:rgb(0,0,255);stroke-width:1"/><polygon points="98.59953,100.73311 102.58853,138.68549 140.54094,134.69655 136.55202,96.74406 " style="fill:#EEEEEE;stroke:rgb(0,0,255);stroke-width:1"/><polygon points="98.400085,98.835495 103.09735,137.09125 141.35313,132.39404 136.65594,94.138176 " style="fill:#EEEEEE;stroke:rgb(0,0,255);stroke-width:1"/><polygon points="98.16522,96.922714 103.583084,135.47232 142.13274,130.05455 136.71497,91.50481 " style="fill:#EEEEEE;stroke:rgb(0,0,255);stroke-width:1"/><polygon points="97.89433,94.995224 104.04506,133.82892 142.87877,127.67828 136.72815,88.84446 " style="fill:#EEEEEE;stroke:rgb(0,0,255);stroke-width:1"/><polygon points="97.58681,93.05354 104.482605,132.16118 143.59027,125.265465 136.69456,86.157684 " style="fill:#EEEEEE;stroke:rgb(0,0,255);stroke-width:1"/><polygon points="97.242035,91.09816 104.895065,130.4693 144.26624,122.816345 136.61328,83.44505 " style="fill:#EEEEEE;stroke:rgb(0,0,255);stroke-width:1"/><polygon points="96.85939,89.12959 105.28177,128.7535 144.9057,120.33119 136.4834,80.707146 " style="fill:#EEEEEE;stroke:rgb(0,0,255);stroke-width:1"/><polygon points="96.43828,87.1484 105.64203,127.01398 145.50764,117.8103 136.30396,77.94457 " style="fill:#EEEEEE;stroke:rgb(0,0,255);stroke-width:1"/><polygon points="95.9781,85.15511 105.975174,125.25099 146.07108,115.25398 136.07407,75.15795 " style="fill:#EEEEEE;stroke:rgb(0,0,255);stroke-width:1"/><polygon points="95.47826,83.15032 106.28053,123.46477 146.59502,112.66257 135.79279,72.347946 " style="fill:#EEEEEE;stroke:rgb(0,0,255);stroke-width:1"/><polygon points="94.938156,81.1346 106.5574,121.65558 147.07841,110.03639 135.45921,69.51524 " style="fill:#EEEEEE;stroke:rgb(0,0,255);stroke-width:1"/><polygon points="94.35719,79.10854 106.805115,119.823685 147.5203,107.37584 135.07242,66.66052 " style="fill:#EEEEEE;stroke:rgb(0,0,255);stroke-width:1"/><polygon points="93.7348,77.07278 107.02298,117.9694 147.91962,104.681305 134.63148,63.784515 " style="fill:#EEEEEE;stroke:rgb(0,0,255);stroke-width:1"/><polygon points="93.070404,75.02794 107.21028,116.09301 148.27539,101.9532 134.13553,60.887955 " style="fill:#EEEEEE;stroke:rgb(0,0,255);stroke-width:1"/><polygon points="92.36342,72.97468 107.36638,114.19485 148.58656,99.191956 133.58362,57.97162 " style="fill:#EEEEEE;stroke:rgb(0,0,255);stroke-width:1"/><polygon points="91.613266,70.91366 107.49054,112.27524 148.85214,96.39804 132.97488,55.036293 " style="fill:#EEEEEE;stroke:rgb(0,0,255);stroke-width:1"/><polygon points="90.81941,68.84557 107.58209,110.33454 149.07108,93.571945 132.3084,52.0828 " style="fill:#EEEEEE;stroke:rgb(0,0,255);stroke-width:1"/><polygon points="89.98129,66.77112 107.64032,108.37312 149.24236,90.71416 131.5833,49.111977 " style="fill:#EEEEEE;stroke:rgb(0,0,255);stroke-width:1"/><polygon points="89.09834,64.69101 107.664566,106.39137 149.36494,87.8252 130.79869,46.12468 " style="fill:#EEEEEE;stroke:rgb(0,0,255);stroke-width:1"/><polygon points="88.17003,62.60598 107.65411,104.38968 149.43782,84.90565 129.9537,43.121803 " style="fill:#EEEEEE;stroke:rgb(0,0,255);stroke-width:1"/><polygon points="87.19584,60.516792 107.60828,102.368454 149.45995,81.95606 129.04747,40.104256 " style="fill:#EEEEEE;stroke:rgb(0,0,255);stroke-width:1"/><polygon points="86.17522,58.424202 107.52637,100.32814 149.4303,78.97705 128.07913,37.072968 " style="fill:#EEEEEE;stroke:rgb(0,0,255);stroke-width:1"/><polygon points="85.107666,56.328995 107.407684,98.26918 149.34785,75.96922 127.047806,34.028908 " style="fill:#EEEEEE;stroke:rgb(0,0,255);stroke-width:1"/><polygon points="83.992676,54.23198 107.25154,96.19205 149.21156,72.93323 125.95268,30.973045 " style="fill:#EEEEEE;stroke:rgb(0,0,255);stroke-width:1"/><polygon points="82.829735,52.133972 107.05725,94.0972 149.02043,69.86975 124.79291,27.906395 " style="fill:#EEEEEE;stroke:rgb(0,0,255);stroke-width:1"/><polygon points="81.61836,50.035805 106.82411,91.98517 148.7734,66.77947 123.56766,24.830002 " style="fill:#EEEEEE;stroke:rgb(0,0,255);stroke-width:1"/><polygon points="80.35808,47.93833 106.55144,89.85643 148.46948,63.663124 122.27611,21.744904 " style="fill:#EEEEEE;stroke:rgb(0,0,255);stroke-width:1"/><polygon points="79.048416,45.84243 106.23857,87.71155 148.10765,60.521446 120.91748,18.652206 " style="fill:#EEEEEE;stroke:rgb(0,0,255);stroke-width:1"/><polygon points="77.6889,43.748978 105.88481,85.55106 147.68686,57.355217 119.49094,15.553009 " style="fill:#EEEEEE;stroke:rgb(0,0,255);stroke-width:1"/><polygon points="76.27911,41.658867 105.48949,83.37554 147.20612,54.16523 117.99573,12.448441 " style="fill:#EEEEEE;stroke:rgb(0,0,255);stroke-width:1"/><polygon points="74.8186,39.57302 105.05191,81.18556 146.66441,50.9523 116.431076,9.339661 " style="fill:#EEEEEE;stroke:rgb(0,0,255);stroke-width:1"/><polygon points="73.306946,37.492386 104.57144,78.981735 146.06075,47.7173 114.79622,6.2278595 " style="fill:#EEEEEE;stroke:rgb(0,0,255);stroke-width:1"/><polygon points="71.74373,35.417908 104.04738,76.76468 145.3941,44.461075 113.09041,3.1142273 " style="fill:#EEEEEE;stroke:rgb(0,0,255);stroke-width:1"/><polygon points="70.128555,33.350563 103.479095,74.53503 144.6635,41.18454 111.31293,0.0 " style="fill:#EEEEEE;stroke:rgb(0,0,255);stroke-width:1"/></svg>