<svg height="209.15588" width="148.2973" xmlns="http://www.w3.org/2000/svg">
    <polygon points="23.359987,155.99203 23.359987,156.99203 24.359987,156.99203 24.359987,155.99203 " style="fill:#EEEEEE;stroke:rgb(0,0,255);stroke-width:0.1"/>
    <polygon points="23.359106,155.94154 23.376734,156.95139 24.38658,156.93376 24.368952,155.92392 " style="fill:#EEEEEE;stroke:rgb(0,0,255);stroke-width:0.1"/>
    <polygon points="23.357327,155.89056 23.392927,156.91005 24.412405,156.87445 24.376804,155.85497 " style="fill:#EEEEEE;stroke:rgb(0,0,255);stroke-width:0.1"/>
    <polygon points="23.35463,155.83913 23.408552,156.86801 24.43744,156.81409 24.383518,155.7852 " style="fill:#EEEEEE;stroke:rgb(0,0,255);stroke-width:0.1"/>
    <polygon points="23.351,155.78722 23.42359,156.82529 24.461658,156.7527 24.389069,155.71463 " style="fill:#EEEEEE;stroke:rgb(0,0,255);stroke-width:0.1"/>
    <polygon points="23.34642,155.73486 23.438023,156.78188 24.485033,156.69028 24.39343,155.64326 " style="fill:#EEEEEE;stroke:rgb(0,0,255);stroke-width:0.1"/>
    <polygon points="23.340872,155.68208 23.451832,156.7378 24.507536,156.62683 24.396578,155.57112 " style="fill:#EEEEEE;stroke:rgb(0,0,255);stroke-width:0.1"/>
    <polygon points="23.33434,155.62888 23.465,156.69302 24.529144,156.56236 24.398483,155.49821 " style="fill:#EEEEEE;stroke:rgb(0,0,255);stroke-width:0.1"/>
    <polygon points="23.326803,155.57526 23.477509,156.64758 24.549828,156.49687 24.399122,155.42456 " style="fill:#EEEEEE;stroke:rgb(0,0,255);stroke-width:0.1"/>
    <polygon points="23.318249,155.52126 23.48934,156.60147 24.56956,156.43037 24.39847,155.35016 " style="fill:#EEEEEE;stroke:rgb(0,0,255);stroke-width:0.1"/>
    <polygon points="23.308659,155.46686 23.500475,156.5547 24.588314,156.36288 24.3965,155.27504 " style="fill:#EEEEEE;stroke:rgb(0,0,255);stroke-width:0.1"/>
    <polygon points="23.298016,155.4121 23.510895,156.50726 24.606064,156.29439 24.393185,155.19922 " style="fill:#EEEEEE;stroke:rgb(0,0,255);stroke-width:0.1"/>
    <polygon points="23.2863,155.357 23.52058,156.4592 24.622782,156.22491 24.388502,155.12271 " style="fill:#EEEEEE;stroke:rgb(0,0,255);stroke-width:0.1"/>
    <polygon points="23.2735,155.30154 23.529514,156.41046 24.63844,156.15445 24.382423,155.04553 " style="fill:#EEEEEE;stroke:rgb(0,0,255);stroke-width:0.1"/>
    <polygon points="23.259596,155.24577 23.53768,156.36111 24.65301,156.08302 24.374926,154.9677 " style="fill:#EEEEEE;stroke:rgb(0,0,255);stroke-width:0.1"/>
    <polygon points="23.244572,155.18971 23.545053,156.31111 24.666462,156.01064 24.365982,154.88922 " style="fill:#EEEEEE;stroke:rgb(0,0,255);stroke-width:0.1"/>
    <polygon points="23.22841,155.13335 23.551619,156.2605 24.678772,155.9373 24.355566,154.81015 " style="fill:#EEEEEE;stroke:rgb(0,0,255);stroke-width:0.1"/>
    <polygon points="23.211098,155.07672 23.557356,156.20927 24.68991,155.86302 24.343655,154.73047 " style="fill:#EEEEEE;stroke:rgb(0,0,255);stroke-width:0.1"/>
    <polygon points="23.192617,155.01984 23.562246,156.15744 24.69985,155.78781 24.330221,154.6502 " style="fill:#EEEEEE;stroke:rgb(0,0,255);stroke-width:0.1"/>
    <polygon points="23.17295,154.96272 23.566273,156.10501 24.708563,155.7117 24.31524,154.56941 " style="fill:#EEEEEE;stroke:rgb(0,0,255);stroke-width:0.1"/>
    <polygon points="23.152084,154.9054 23.569414,156.052 24.716017,155.63467 24.298689,154.48807 " style="fill:#EEEEEE;stroke:rgb(0,0,255);stroke-width:0.1"/>
    <polygon points="23.130003,154.84787 23.571651,155.99841 24.722189,155.55676 24.280539,154.40622 " style="fill:#EEEEEE;stroke:rgb(0,0,255);stroke-width:0.1"/>
    <polygon points="23.106688,154.79016 23.572968,155.94424 24.727047,155.47797 24.260769,154.32388 " style="fill:#EEEEEE;stroke:rgb(0,0,255);stroke-width:0.1"/>
    <polygon points="23.082127,154.7323 23.57334,155.88953 24.730564,155.39832 24.239351,154.24109 " style="fill:#EEEEEE;stroke:rgb(0,0,255);stroke-width:0.1"/>
    <polygon points="23.056305,154.6743 23.572752,155.83427 24.732714,155.31783 24.216265,154.15785 " style="fill:#EEEEEE;stroke:rgb(0,0,255);stroke-width:0.1"/>
    <polygon points="23.029205,154.6162 23.571186,155.77847 24.733463,155.2365 24.191484,154.07422 " style="fill:#EEEEEE;stroke:rgb(0,0,255);stroke-width:0.1"/>
    <polygon points="23.000816,154.55798 23.568619,155.72215 24.732788,155.15434 24.164986,153.99019 " style="fill:#EEEEEE;stroke:rgb(0,0,255);stroke-width:0.1"/>
    <polygon points="22.97112,154.49971 23.565035,155.66533 24.730658,155.07141 24.136744,153.90579 " style="fill:#EEEEEE;stroke:rgb(0,0,255);stroke-width:0.1"/>
    <polygon points="22.940105,154.44138 23.560413,155.608 24.727043,154.98769 24.106735,153.82106 " style="fill:#EEEEEE;stroke:rgb(0,0,255);stroke-width:0.1"/>
    <polygon points="22.907755,154.38301 23.554735,155.5502 24.72192,154.90321 24.07494,153.73604 " style="fill:#EEEEEE;stroke:rgb(0,0,255);stroke-width:0.1"/>
    <polygon points="22.87406,154.32465 23.547983,155.49191 24.715256,154.818 24.04133,153.65073 " style="fill:#EEEEEE;stroke:rgb(0,0,255);stroke-width:0.1"/>
    <polygon points="22.839003,154.26631 23.540138,155.4332 24.707024,154.73206 24.005888,153.56517 " style="fill:#EEEEEE;stroke:rgb(0,0,255);stroke-width:0.1"/>
    <polygon points="22.802572,154.20801 23.53118,155.37402 24.697195,154.64542 23.968588,153.4794 " style="fill:#EEEEEE;stroke:rgb(0,0,255);stroke-width:0.1"/>
    <polygon points="22.764755,154.14977 23.52109,155.31442 24.685743,154.55809 23.929409,153.39343 " style="fill:#EEEEEE;stroke:rgb(0,0,255);stroke-width:0.1"/>
    <polygon points="22.72554,154.09163 23.509851,155.25443 24.67264,154.47011 23.888329,153.30733 " style="fill:#EEEEEE;stroke:rgb(0,0,255);stroke-width:0.1"/>
    <polygon points="22.684914,154.03362 23.497444,155.19403 24.657856,154.3815 23.845327,153.22108 " style="fill:#EEEEEE;stroke:rgb(0,0,255);stroke-width:0.1"/>
    <polygon points="22.642864,153.97574 23.483849,155.13326 24.641365,154.29227 23.80038,153.13475 " style="fill:#EEEEEE;stroke:rgb(0,0,255);stroke-width:0.1"/>
    <polygon points="22.59938,153.91803 23.46905,155.07211 24.623138,154.20245 23.753471,153.04837 " style="fill:#EEEEEE;stroke:rgb(0,0,255);stroke-width:0.1"/>
    <polygon points="22.554453,153.86052 23.453028,155.01065 24.60315,154.11208 23.704576,152.96194 " style="fill:#EEEEEE;stroke:rgb(0,0,255);stroke-width:0.1"/>
    <polygon points="22.508068,153.80324 23.435762,154.94885 24.581371,154.02116 23.653677,152.87555 " style="fill:#EEEEEE;stroke:rgb(0,0,255);stroke-width:0.1"/>
    <polygon points="22.460217,153.74622 23.41724,154.88675 24.557775,153.92973 23.600752,152.7892 " style="fill:#EEEEEE;stroke:rgb(0,0,255);stroke-width:0.1"/>
    <polygon points="22.410889,153.68947 23.397438,154.82437 24.532335,153.83781 23.545786,152.70293 " style="fill:#EEEEEE;stroke:rgb(0,0,255);stroke-width:0.1"/>
    <polygon points="22.360075,153.63304 23.376345,154.76172 24.505024,153.74545 23.488756,152.61678 " style="fill:#EEEEEE;stroke:rgb(0,0,255);stroke-width:0.1"/>
    <polygon points="22.307768,153.57695 23.353937,154.69882 24.475817,153.65265 23.429647,152.53078 " style="fill:#EEEEEE;stroke:rgb(0,0,255);stroke-width:0.1"/>
    <polygon points="22.253954,153.52122 23.3302,154.63571 24.444687,153.55946 23.36844,152.44498 " style="fill:#EEEEEE;stroke:rgb(0,0,255);stroke-width:0.1"/>
    <polygon points="22.198631,153.4659 23.305119,154.57239 24.411606,153.4659 23.305119,152.3594 " style="fill:#EEEEEE;stroke:rgb(0,0,255);stroke-width:0.1"/>
    <polygon points="22.141787,153.411 23.278673,154.50888 24.37655,153.372 23.239666,152.27411 " style="fill:#EEEEEE;stroke:rgb(0,0,255);stroke-width:0.1"/>
    <polygon points="22.083414,153.35657 23.250847,154.44522 24.339497,153.27779 23.172064,152.18913 " style="fill:#EEEEEE;stroke:rgb(0,0,255);stroke-width:0.1"/>
    <polygon points="22.023508,153.30263 23.221626,154.38142 24.300415,153.1833 23.102299,152.1045 " style="fill:#EEEEEE;stroke:rgb(0,0,255);stroke-width:0.1"/>
    <polygon points="21.96206,153.24922 23.190992,154.3175 24.259285,153.08858 23.030355,152.0203 " style="fill:#EEEEEE;stroke:rgb(0,0,255);stroke-width:0.1"/>
    <polygon points="21.899069,153.19637 23.15893,154.25351 24.216078,152.99365 22.956219,151.9365 " style="fill:#EEEEEE;stroke:rgb(0,0,255);stroke-width:0.1"/>
    <polygon points="21.834524,153.14409 23.125423,154.18944 24.170774,152.89854 22.879875,151.8532 " style="fill:#EEEEEE;stroke:rgb(0,0,255);stroke-width:0.1"/>
    <polygon points="21.768421,153.09245 23.090458,154.12534 24.123346,152.8033 22.801311,151.77042 " style="fill:#EEEEEE;stroke:rgb(0,0,255);stroke-width:0.1"/>
    <polygon points="21.70076,153.04146 23.05402,154.06122 24.073774,152.70795 22.720514,151.6882 " style="fill:#EEEEEE;stroke:rgb(0,0,255);stroke-width:0.1"/>
    <polygon points="21.63153,152.99117 23.01609,153.9971 24.022032,152.61255 22.637474,151.6066 " style="fill:#EEEEEE;stroke:rgb(0,0,255);stroke-width:0.1"/>
    <polygon points="21.560736,152.94159 22.976658,153.93303 23.9681,152.5171 22.552176,151.52567 " style="fill:#EEEEEE;stroke:rgb(0,0,255);stroke-width:0.1"/>
    <polygon points="21.488367,152.89278 22.935709,153.86902 23.911953,152.42168 22.464613,151.44543 " style="fill:#EEEEEE;stroke:rgb(0,0,255);stroke-width:0.1"/>
    <polygon points="21.414429,152.84476 22.893229,153.8051 23.853573,152.32631 22.374773,151.36597 " style="fill:#EEEEEE;stroke:rgb(0,0,255);stroke-width:0.1"/>
    <polygon points="21.338913,152.79758 22.849201,153.7413 23.792936,152.23102 22.282648,151.28728 " style="fill:#EEEEEE;stroke:rgb(0,0,255);stroke-width:0.1"/>
    <polygon points="21.261824,152.75125 22.803617,153.67766 23.730022,152.13586 22.188229,151.20946 " style="fill:#EEEEEE;stroke:rgb(0,0,255);stroke-width:0.1"/>
    <polygon points="21.183159,152.70584 22.756464,153.61418 23.664812,152.04088 22.091507,151.13254 " style="fill:#EEEEEE;stroke:rgb(0,0,255);stroke-width:0.1"/>
    <polygon points="21.102919,152.66136 22.707726,153.55092 23.597284,151.9461 21.992477,151.05655 " style="fill:#EEEEEE;stroke:rgb(0,0,255);stroke-width:0.1"/>
    <polygon points="21.021103,152.61786 22.657393,153.48788 23.527424,151.8516 21.891134,150.98157 " style="fill:#EEEEEE;stroke:rgb(0,0,255);stroke-width:0.1"/>
    <polygon points="20.937717,152.57536 22.605453,153.42513 23.455208,151.75739 21.787472,150.90764 " style="fill:#EEEEEE;stroke:rgb(0,0,255);stroke-width:0.1"/>
    <polygon points="20.85276,152.53394 22.551895,153.36266 23.38062,151.66351 21.681484,150.8348 " style="fill:#EEEEEE;stroke:rgb(0,0,255);stroke-width:0.1"/>
    <polygon points="20.766235,152.49359 22.49671,153.30052 23.303642,151.57004 21.57317,150.7631 " style="fill:#EEEEEE;stroke:rgb(0,0,255);stroke-width:0.1"/>
    <polygon points="20.67815,152.45436 22.439884,153.23874 23.22426,151.477 21.462524,150.69263 " style="fill:#EEEEEE;stroke:rgb(0,0,255);stroke-width:0.1"/>
    <polygon points="20.588505,152.41632 22.381413,153.17735 23.142456,151.38445 21.349548,150.6234 " style="fill:#EEEEEE;stroke:rgb(0,0,255);stroke-width:0.1"/>
    <polygon points="20.497305,152.37947 22.321281,153.11641 23.058216,151.29242 21.23424,150.5555 " style="fill:#EEEEEE;stroke:rgb(0,0,255);stroke-width:0.1"/>
    <polygon points="20.40456,152.34387 22.259483,153.05591 22.971523,151.20097 21.116598,150.48894 " style="fill:#EEEEEE;stroke:rgb(0,0,255);stroke-width:0.1"/>
    <polygon points="20.310272,152.30956 22.196012,152.9959 22.882366,151.11015 20.996626,150.4238 " style="fill:#EEEEEE;stroke:rgb(0,0,255);stroke-width:0.1"/>
    <polygon points="20.21445,152.27655 22.130857,152.93643 22.79073,151.02002 20.874323,150.36014 " style="fill:#EEEEEE;stroke:rgb(0,0,255);stroke-width:0.1"/>
    <polygon points="20.117107,152.24493 22.064013,152.87752 22.696602,150.9306 20.749695,150.29802 " style="fill:#EEEEEE;stroke:rgb(0,0,255);stroke-width:0.1"/>
    <polygon points="20.018246,152.2147 21.995472,152.8192 22.59997,150.84196 20.622746,150.23747 " style="fill:#EEEEEE;stroke:rgb(0,0,255);stroke-width:0.1"/>
    <polygon points="19.917877,152.18593 21.925228,152.76152 22.500826,150.75417 20.493477,150.17856 " style="fill:#EEEEEE;stroke:rgb(0,0,255);stroke-width:0.1"/>
    <polygon points="19.816015,152.15863 21.853275,152.70451 22.399158,150.66725 20.361897,150.12135 " style="fill:#EEEEEE;stroke:rgb(0,0,255);stroke-width:0.1"/>
    <polygon points="19.712667,152.13286 21.77961,152.64821 22.294956,150.58125 20.228014,150.06592 " style="fill:#EEEEEE;stroke:rgb(0,0,255);stroke-width:0.1"/>
    <polygon points="19.60785,152.10866 21.704226,152.59265 22.188213,150.49626 20.091835,150.01228 " style="fill:#EEEEEE;stroke:rgb(0,0,255);stroke-width:0.1"/>
    <polygon points="19.501572,152.08607 21.627121,152.53787 22.07892,150.41231 19.953371,149.96051 " style="fill:#EEEEEE;stroke:rgb(0,0,255);stroke-width:0.1"/>
    <polygon points="19.393848,152.06512 21.54829,152.48392 21.967072,150.32947 19.81263,149.91068 " style="fill:#EEEEEE;stroke:rgb(0,0,255);stroke-width:0.1"/>
    <polygon points="19.284697,152.04588 21.467733,152.43082 21.852663,150.24777 19.669626,149.86284 " style="fill:#EEEEEE;stroke:rgb(0,0,255);stroke-width:0.1"/>
    <polygon points="19.174131,152.02837 21.385448,152.37862 21.735685,150.16728 19.52437,149.81705 " style="fill:#EEEEEE;stroke:rgb(0,0,255);stroke-width:0.1"/>
    <polygon points="19.062168,152.01263 21.301432,152.32735 21.616138,150.08807 19.376877,149.77336 " style="fill:#EEEEEE;stroke:rgb(0,0,255);stroke-width:0.1"/>
    <polygon points="18.948824,151.99872 21.215683,152.27705 21.494019,150.0102 19.227161,149.73186 " style="fill:#EEEEEE;stroke:rgb(0,0,255);stroke-width:0.1"/>
    <polygon points="18.83412,151.98666 21.128206,152.22778 21.369324,149.93369 19.07524,149.69257 " style="fill:#EEEEEE;stroke:rgb(0,0,255);stroke-width:0.1"/>
    <polygon points="18.718075,151.97652 21.038998,152.17957 21.242052,149.85864 18.921127,149.65558 " style="fill:#EEEEEE;stroke:rgb(0,0,255);stroke-width:0.1"/>
    <polygon points="18.600706,151.9683 20.948061,152.13245 21.112204,149.78508 18.764849,149.62094 " style="fill:#EEEEEE;stroke:rgb(0,0,255);stroke-width:0.1"/>
    <polygon points="18.482038,151.96208 20.855398,152.08647 20.97978,149.7131 18.60642,149.58871 " style="fill:#EEEEEE;stroke:rgb(0,0,255);stroke-width:0.1"/>
    <polygon points="18.362091,151.9579 20.761013,152.04167 20.844786,149.64275 18.445864,149.55896 " style="fill:#EEEEEE;stroke:rgb(0,0,255);stroke-width:0.1"/>
    <polygon points="18.24089,151.95578 20.66491,151.9981 20.70722,149.57407 18.283201,149.53175 " style="fill:#EEEEEE;stroke:rgb(0,0,255);stroke-width:0.1"/>
    <polygon points="18.118458,151.95578 20.567091,151.95578 20.56709,149.50714 18.118458,149.50714 " style="fill:#EEEEEE;stroke:rgb(0,0,255);stroke-width:0.1"/>
    <polygon points="17.994822,151.95795 20.467564,151.91478 20.4244,149.44203 17.95166,149.48518 " style="fill:#EEEEEE;stroke:rgb(0,0,255);stroke-width:0.1"/>
    <polygon points="17.870005,151.9623 20.366333,151.87512 20.27916,149.37878 17.782831,149.46596 " style="fill:#EEEEEE;stroke:rgb(0,0,255);stroke-width:0.1"/>
    <polygon points="17.744038,151.9689 20.263407,151.83687 20.131372,149.31749 17.612001,149.44952 " style="fill:#EEEEEE;stroke:rgb(0,0,255);stroke-width:0.1"/>
    <polygon points="17.616943,151.97778 20.158794,151.80005 19.981049,149.25818 17.4392,149.43593 " style="fill:#EEEEEE;stroke:rgb(0,0,255);stroke-width:0.1"/>
    <polygon points="17.488758,151.989 20.052502,151.7647 19.828201,149.20094 17.264458,149.42525 " style="fill:#EEEEEE;stroke:rgb(0,0,255);stroke-width:0.1"/>
    <polygon points="17.359507,152.00258 19.944538,151.73088 19.67284,149.14584 17.087805,149.41754 " style="fill:#EEEEEE;stroke:rgb(0,0,255);stroke-width:0.1"/>
    <polygon points="17.229221,152.01859 19.834917,151.69864 19.514977,149.09294 16.909279,149.41287 " style="fill:#EEEEEE;stroke:rgb(0,0,255);stroke-width:0.1"/>
    <polygon points="17.097937,152.03703 19.723648,151.66801 19.354626,149.0423 16.728912,149.41132 " style="fill:#EEEEEE;stroke:rgb(0,0,255);stroke-width:0.1"/>
    <polygon points="16.965683,152.05798 19.610743,151.63904 19.191805,148.99397 16.546741,149.4129 " style="fill:#EEEEEE;stroke:rgb(0,0,255);stroke-width:0.1"/>
    <polygon points="16.832497,152.08147 19.496216,151.61177 19.02653,148.94804 16.362806,149.41772 " style="fill:#EEEEEE;stroke:rgb(0,0,255);stroke-width:0.1"/>
    <polygon points="16.698414,152.10753 19.380081,151.58626 18.858816,148.90459 16.177145,149.42584 " style="fill:#EEEEEE;stroke:rgb(0,0,255);stroke-width:0.1"/>
    <polygon points="16.563469,152.13622 19.262352,151.56255 18.688686,148.86365 15.989799,149.43732 " style="fill:#EEEEEE;stroke:rgb(0,0,255);stroke-width:0.1"/>
    <polygon points="16.427702,152.16756 19.143047,151.54066 18.51616,148.82532 15.80081,149.4522 " style="fill:#EEEEEE;stroke:rgb(0,0,255);stroke-width:0.1"/>
    <polygon points="16.291151,152.2016 19.02218,151.52068 18.341255,148.78963 15.610222,149.47055 " style="fill:#EEEEEE;stroke:rgb(0,0,255);stroke-width:0.1"/>
    <polygon points="16.153854,152.23839 18.899773,151.50262 18.164003,148.75668 15.418081,149.49246 " style="fill:#EEEEEE;stroke:rgb(0,0,255);stroke-width:0.1"/>
    <polygon points="16.015856,152.27795 18.77584,151.48654 17.984425,148.72655 15.224435,149.51796 " style="fill:#EEEEEE;stroke:rgb(0,0,255);stroke-width:0.1"/>
    <polygon points="15.877195,152.32036 18.650406,151.47249 17.802546,148.69926 15.029331,149.54712 " style="fill:#EEEEEE;stroke:rgb(0,0,255);stroke-width:0.1"/>
    <polygon points="15.737917,152.3656 18.523487,151.46051 17.618397,148.67493 14.832821,149.58002 " style="fill:#EEEEEE;stroke:rgb(0,0,255);stroke-width:0.1"/>
    <polygon points="15.598064,152.41376 18.395107,151.45065 17.432003,148.6536 14.634954,149.6167 " style="fill:#EEEEEE;stroke:rgb(0,0,255);stroke-width:0.1"/>
    <polygon points="15.457684,152.46486 18.265291,151.44296 17.2434,148.63535 14.435786,149.65723 " style="fill:#EEEEEE;stroke:rgb(0,0,255);stroke-width:0.1"/>
    <polygon points="15.316822,152.51892 18.13406,151.43748 17.052618,148.62024 14.235373,149.70168 " style="fill:#EEEEEE;stroke:rgb(0,0,255);stroke-width:0.1"/>
    <polygon points="15.175526,152.57602 18.00144,151.43427 16.859692,148.60834 14.03377,149.75008 " style="fill:#EEEEEE;stroke:rgb(0,0,255);stroke-width:0.1"/>
    <polygon points="15.033845,152.63615 17.867458,151.43335 16.664654,148.59973 13.831035,149.80252 " style="fill:#EEEEEE;stroke:rgb(0,0,255);stroke-width:0.1"/>
    <polygon points="14.8918295,152.69939 17.732141,151.43478 16.467546,148.59447 13.627228,149.85905 " style="fill:#EEEEEE;stroke:rgb(0,0,255);stroke-width:0.1"/>
    <polygon points="14.74953,152.76575 17.595516,151.43863 16.268404,148.59262 13.422411,149.91974 " style="fill:#EEEEEE;stroke:rgb(0,0,255);stroke-width:0.1"/>
    <polygon points="14.606999,152.83525 17.457615,151.44492 16.067268,148.59428 13.216646,149.98462 " style="fill:#EEEEEE;stroke:rgb(0,0,255);stroke-width:0.1"/>
    <polygon points="14.464291,152.90797 17.318466,151.45369 15.864183,148.5995 13.009999,150.05377 " style="fill:#EEEEEE;stroke:rgb(0,0,255);stroke-width:0.1"/>
    <polygon points="14.321459,152.98392 17.1781,151.46501 15.659189,148.60834 12.802537,150.12726 " style="fill:#EEEEEE;stroke:rgb(0,0,255);stroke-width:0.1"/>
    <polygon points="14.178558,153.06313 17.036554,151.47891 15.452333,148.6209 12.594327,150.20511 " style="fill:#EEEEEE;stroke:rgb(0,0,255);stroke-width:0.1"/>
    <polygon points="14.035647,153.14563 16.89386,151.49544 15.243661,148.6372 12.385439,150.2874 " style="fill:#EEEEEE;stroke:rgb(0,0,255);stroke-width:0.1"/>
    <polygon points="13.892783,153.23148 16.75005,151.51465 15.033221,148.65736 12.175945,150.37419 " style="fill:#EEEEEE;stroke:rgb(0,0,255);stroke-width:0.1"/>
    <polygon points="13.750026,153.32068 16.605164,151.53659 14.821066,148.68143 11.965919,150.46552 " style="fill:#EEEEEE;stroke:rgb(0,0,255);stroke-width:0.1"/>
    <polygon points="13.607435,153.41328 16.459236,151.5613 14.607245,148.70947 11.755434,150.56146 " style="fill:#EEEEEE;stroke:rgb(0,0,255);stroke-width:0.1"/>
    <polygon points="13.465073,153.50931 16.31231,151.5888 14.391814,148.74156 11.544569,150.66205 " style="fill:#EEEEEE;stroke:rgb(0,0,255);stroke-width:0.1"/>
    <polygon points="13.323001,153.60878 16.164421,151.61919 14.174827,148.77776 11.3334,150.76735 " style="fill:#EEEEEE;stroke:rgb(0,0,255);stroke-width:0.1"/>
    <polygon points="13.181285,153.71175 16.01561,151.65248 13.956341,148.81813 11.122007,150.8774 " style="fill:#EEEEEE;stroke:rgb(0,0,255);stroke-width:0.1"/>
    <polygon points="13.0399885,153.81822 15.865921,151.68872 13.736416,148.86276 10.910474,150.99226 " style="fill:#EEEEEE;stroke:rgb(0,0,255);stroke-width:0.1"/>
    <polygon points="12.899177,153.92824 15.715398,151.72795 13.515112,148.91171 10.698882,151.11198 " style="fill:#EEEEEE;stroke:rgb(0,0,255);stroke-width:0.1"/>
    <polygon points="12.758918,154.04181 15.564083,151.77022 13.292492,148.96504 10.487317,151.23663 " style="fill:#EEEEEE;stroke:rgb(0,0,255);stroke-width:0.1"/>
    <polygon points="12.619281,154.15898 15.412025,151.81558 13.068621,149.02281 10.275866,151.36621 " style="fill:#EEEEEE;stroke:rgb(0,0,255);stroke-width:0.1"/>
    <polygon points="12.480333,154.27977 15.259269,151.86406 12.843563,149.08511 10.064616,151.50081 " style="fill:#EEEEEE;stroke:rgb(0,0,255);stroke-width:0.1"/>
    <polygon points="12.342148,154.40419 15.105864,151.91573 12.617387,149.15198 9.85366,151.64046 " style="fill:#EEEEEE;stroke:rgb(0,0,255);stroke-width:0.1"/>
    <polygon points="12.204795,154.53227 14.951858,151.97058 12.390163,149.2235 9.643087,151.78519 " style="fill:#EEEEEE;stroke:rgb(0,0,255);stroke-width:0.1"/>
    <polygon points="12.068346,154.66405 14.797302,152.0287 12.1619625,149.29973 9.432993,151.93506 " style="fill:#EEEEEE;stroke:rgb(0,0,255);stroke-width:0.1"/>
    <polygon points="11.932877,154.79951 14.64225,152.09012 11.932858,149.38072 9.223472,152.09012 " style="fill:#EEEEEE;stroke:rgb(0,0,255);stroke-width:0.1"/>
    <polygon points="11.798461,154.9387 14.486753,152.15488 11.702927,149.46657 9.014621,152.25038 " style="fill:#EEEEEE;stroke:rgb(0,0,255);stroke-width:0.1"/>
    <polygon points="11.665176,155.08163 14.330867,152.223 11.472243,149.5573 8.806539,152.41592 " style="fill:#EEEEEE;stroke:rgb(0,0,255);stroke-width:0.1"/>
    <polygon points="11.533098,155.22832 14.174646,152.29457 11.240889,149.653 8.599325,152.58675 " style="fill:#EEEEEE;stroke:rgb(0,0,255);stroke-width:0.1"/>
    <polygon points="11.402305,155.37878 14.018149,152.36958 11.008943,149.75371 8.393083,152.76291 " style="fill:#EEEEEE;stroke:rgb(0,0,255);stroke-width:0.1"/>
    <polygon points="11.272877,155.53304 13.861434,152.44809 10.776488,149.8595 8.187915,152.94444 " style="fill:#EEEEEE;stroke:rgb(0,0,255);stroke-width:0.1"/>
    <polygon points="11.144893,155.69107 13.704559,152.53014 10.543611,149.97044 7.983927,153.13138 " style="fill:#EEEEEE;stroke:rgb(0,0,255);stroke-width:0.1"/>
    <polygon points="11.018435,155.85294 13.547586,152.61575 10.310395,150.08656 7.781225,153.32376 " style="fill:#EEEEEE;stroke:rgb(0,0,255);stroke-width:0.1"/>
    <polygon points="10.893584,156.01862 13.390577,152.70497 10.07693,150.20795 7.57992,153.52159 " style="fill:#EEEEEE;stroke:rgb(0,0,255);stroke-width:0.1"/>
    <polygon points="10.770425,156.18813 13.233595,152.79785 9.843306,150.33466 7.3801184,153.72493 " style="fill:#EEEEEE;stroke:rgb(0,0,255);stroke-width:0.1"/>
    <polygon points="10.64904,156.36148 13.076703,152.8944 9.609613,150.4667 7.1819344,153.93379 " style="fill:#EEEEEE;stroke:rgb(0,0,255);stroke-width:0.1"/>
    <polygon points="10.529516,156.53868 12.91997,152.99467 9.375949,150.60419 6.9854813,154.14821 " style="fill:#EEEEEE;stroke:rgb(0,0,255);stroke-width:0.1"/>
    <polygon points="10.41194,156.71974 12.76346,153.0987 9.142406,150.74715 6.7908726,154.3682 " style="fill:#EEEEEE;stroke:rgb(0,0,255);stroke-width:0.1"/>
    <polygon points="10.296396,156.90465 12.607243,153.2065 8.909085,150.89563 6.5982246,154.59378 " style="fill:#EEEEEE;stroke:rgb(0,0,255);stroke-width:0.1"/>
    <polygon points="10.182975,157.09341 12.451386,153.31812 8.676084,151.04968 6.4076576,154.82498 " style="fill:#EEEEEE;stroke:rgb(0,0,255);stroke-width:0.1"/>
    <polygon points="10.071764,157.28603 12.295963,153.43358 8.443502,151.20935 6.219288,155.06181 " style="fill:#EEEEEE;stroke:rgb(0,0,255);stroke-width:0.1"/>
    <polygon points="9.962853,157.48251 12.141045,153.55292 8.211447,151.3747 6.0332375,155.30429 " style="fill:#EEEEEE;stroke:rgb(0,0,255);stroke-width:0.1"/>
    <polygon points="9.856335,157.68285 11.986705,153.67616 7.9800205,151.54576 5.8496304,155.55244 " style="fill:#EEEEEE;stroke:rgb(0,0,255);stroke-width:0.1"/>
    <polygon points="9.752297,157.88702 11.833018,153.80334 7.7493324,151.7226 5.6685886,155.80627 " style="fill:#EEEEEE;stroke:rgb(0,0,255);stroke-width:0.1"/>
    <polygon points="9.650835,158.09506 11.68006,153.9345 7.5194893,151.90523 5.49024,156.06581 " style="fill:#EEEEEE;stroke:rgb(0,0,255);stroke-width:0.1"/>
    <polygon points="9.55204,158.30692 11.527908,154.06963 7.2906017,152.09372 5.3147106,156.33102 " style="fill:#EEEEEE;stroke:rgb(0,0,255);stroke-width:0.1"/>
    <polygon points="9.456007,158.52261 11.37664,154.20877 7.0627823,152.2881 5.142128,156.60196 " style="fill:#EEEEEE;stroke:rgb(0,0,255);stroke-width:0.1"/>
    <polygon points="9.36283,158.74213 11.226336,154.35194 6.8361473,152.4884 4.972622,156.8786 " style="fill:#EEEEEE;stroke:rgb(0,0,255);stroke-width:0.1"/>
    <polygon points="9.272606,158.96544 11.077075,154.49918 6.610813,152.69469 4.806322,157.16095 " style="fill:#EEEEEE;stroke:rgb(0,0,255);stroke-width:0.1"/>
    <polygon points="9.18543,159.19254 10.928939,154.6505 6.386894,152.90697 4.64336,157.449 " style="fill:#EEEEEE;stroke:rgb(0,0,255);stroke-width:0.1"/>
    <polygon points="9.1013975,159.42342 10.782012,154.80592 6.1645126,153.12527 4.4838734,157.74278 " style="fill:#EEEEEE;stroke:rgb(0,0,255);stroke-width:0.1"/>
    <polygon points="9.020609,159.65804 10.636378,154.96545 5.9437904,153.34966 4.3279953,158.04225 " style="fill:#EEEEEE;stroke:rgb(0,0,255);stroke-width:0.1"/>
    <polygon points="8.94316,159.89641 10.492122,155.12914 5.724848,153.58014 4.1758614,158.34741 " style="fill:#EEEEEE;stroke:rgb(0,0,255);stroke-width:0.1"/>
    <polygon points="8.86915,160.13847 10.349331,155.29697 5.5078125,153.81676 4.027607,158.65828 " style="fill:#EEEEEE;stroke:rgb(0,0,255);stroke-width:0.1"/>
    <polygon points="8.798678,160.38425 10.208093,155.46898 5.2928123,154.05952 3.8833733,158.97481 " style="fill:#EEEEEE;stroke:rgb(0,0,255);stroke-width:0.1"/>
    <polygon points="8.731846,160.63367 10.068496,155.64516 5.079973,154.30847 3.7432995,159.297 " style="fill:#EEEEEE;stroke:rgb(0,0,255);stroke-width:0.1"/>
    <polygon points="8.668751,160.88672 9.93063,155.82553 4.8694267,154.56363 3.6075249,159.62483 " style="fill:#EEEEEE;stroke:rgb(0,0,255);stroke-width:0.1"/>
    <polygon points="8.609494,161.14339 9.794585,156.01013 4.6613045,154.825 3.4761925,159.95828 " style="fill:#EEEEEE;stroke:rgb(0,0,255);stroke-width:0.1"/>
    <polygon points="8.554179,161.40363 9.660456,156.19893 4.455742,155.09262 3.3494434,160.29733 " style="fill:#EEEEEE;stroke:rgb(0,0,255);stroke-width:0.1"/>
    <polygon points="8.502907,161.66739 9.528334,156.39195 4.2528706,155.3665 3.2274246,160.64195 " style="fill:#EEEEEE;stroke:rgb(0,0,255);stroke-width:0.1"/>
    <polygon points="8.455778,161.93466 9.3983135,156.5892 4.0528316,155.64665 3.110279,160.99211 " style="fill:#EEEEEE;stroke:rgb(0,0,255);stroke-width:0.1"/>
    <polygon points="8.412898,162.2054 9.270489,156.7907 3.8557606,155.93307 2.9981518,161.3478 " style="fill:#EEEEEE;stroke:rgb(0,0,255);stroke-width:0.1"/>
    <polygon points="8.374369,162.47955 9.144958,156.99643 3.6617985,156.2258 2.8911896,161.70895 " style="fill:#EEEEEE;stroke:rgb(0,0,255);stroke-width:0.1"/>
    <polygon points="8.340292,162.7571 9.021817,157.20639 3.4710865,156.52483 2.7895412,162.07556 " style="fill:#EEEEEE;stroke:rgb(0,0,255);stroke-width:0.1"/>
    <polygon points="8.310771,163.03796 8.901166,157.4206 3.2837677,156.83017 2.6933537,162.44756 " style="fill:#EEEEEE;stroke:rgb(0,0,255);stroke-width:0.1"/>
    <polygon points="8.285911,163.32211 8.783101,157.63902 3.099987,157.14182 2.6027756,162.82492 " style="fill:#EEEEEE;stroke:rgb(0,0,255);stroke-width:0.1"/>
    <polygon points="8.265814,163.60951 8.667724,157.8617 2.9198895,157.45976 2.5179596,163.20758 " style="fill:#EEEEEE;stroke:rgb(0,0,255);stroke-width:0.1"/>
    <polygon points="8.250585,163.90009 8.555137,158.0886 2.7436218,157.78401 2.4390526,163.59552 " style="fill:#EEEEEE;stroke:rgb(0,0,255);stroke-width:0.1"/>
    <polygon points="8.240329,164.19379 8.44544,158.3197 2.5713367,158.11456 2.3662052,163.98866 " style="fill:#EEEEEE;stroke:rgb(0,0,255);stroke-width:0.1"/>
    <polygon points="8.235148,164.49055 8.3387375,158.55504 2.403181,158.45142 2.29957,164.38696 " style="fill:#EEEEEE;stroke:rgb(0,0,255);stroke-width:0.1"/>
    <polygon points="8.235148,164.79034 8.235132,158.79456 2.2393074,158.79454 2.2392998,164.79036 " style="fill:#EEEEEE;stroke:rgb(0,0,255);stroke-width:0.1"/>
    <polygon points="8.240433,165.0931 8.134728,159.03825 2.0798683,159.14394 2.1855469,165.19879 " style="fill:#EEEEEE;stroke:rgb(0,0,255);stroke-width:0.1"/>
    <polygon points="8.251105,165.39873 8.037633,159.28613 1.9250183,159.49959 2.138466,165.61218 " style="fill:#EEEEEE;stroke:rgb(0,0,255);stroke-width:0.1"/>
    <polygon points="8.26727,165.70717 7.9439497,159.53816 1.7749119,159.86147 2.0982056,166.03049 " style="fill:#EEEEEE;stroke:rgb(0,0,255);stroke-width:0.1"/>
    <polygon points="8.289031,166.01837 7.8537865,159.79433 1.6297073,160.22954 2.0649242,166.45361 " style="fill:#EEEEEE;stroke:rgb(0,0,255);stroke-width:0.1"/>
    <polygon points="8.316492,166.33226 7.767251,160.0546 1.4895592,160.60382 2.0387745,166.8815 " style="fill:#EEEEEE;stroke:rgb(0,0,255);stroke-width:0.1"/>
    <polygon points="8.349756,166.64874 7.684451,160.31895 1.3546295,160.98424 2.019909,167.31406 " style="fill:#EEEEEE;stroke:rgb(0,0,255);stroke-width:0.1"/>
    <polygon points="8.3889265,166.96777 7.6054955,160.58739 1.2250786,161.37079 2.008482,167.75119 " style="fill:#EEEEEE;stroke:rgb(0,0,255);stroke-width:0.1"/>
    <polygon points="8.434106,167.28923 7.5304937,160.85983 1.1010628,161.76343 2.0046482,168.19284 " style="fill:#EEEEEE;stroke:rgb(0,0,255);stroke-width:0.1"/>
    <polygon points="8.485396,167.61307 7.4595566,161.1363 0.98274803,162.16211 2.008562,168.63892 " style="fill:#EEEEEE;stroke:rgb(0,0,255);stroke-width:0.1"/>
    <polygon points="8.542901,167.9392 7.3927937,161.41673 0.8702965,162.56682 2.0203762,169.08931 " style="fill:#EEEEEE;stroke:rgb(0,0,255);stroke-width:0.1"/>
    <polygon points="8.60672,168.26752 7.3303185,161.70111 0.76387024,162.97748 2.040245,169.54393 " style="fill:#EEEEEE;stroke:rgb(0,0,255);stroke-width:0.1"/>
    <polygon points="8.676954,168.59795 7.2722397,161.98938 0.66363525,163.39407 2.0683231,170.00267 " style="fill:#EEEEEE;stroke:rgb(0,0,255);stroke-width:0.1"/>
    <polygon points="8.753704,168.93039 7.21867,162.28152 0.56975555,163.81653 2.104763,170.46544 " style="fill:#EEEEEE;stroke:rgb(0,0,255);stroke-width:0.1"/>
    <polygon points="8.83707,169.26476 7.1697235,162.57747 0.4824009,164.2448 2.1497211,170.93211 " style="fill:#EEEEEE;stroke:rgb(0,0,255);stroke-width:0.1"/>
    <polygon points="8.927151,169.60095 7.125511,162.87721 0.4017353,164.67882 2.2033463,171.40259 " style="fill:#EEEEEE;stroke:rgb(0,0,255);stroke-width:0.1"/>
    <polygon points="9.024045,169.93886 7.0861473,163.18068 0.32792473,165.11855 2.2657928,171.87677 " style="fill:#EEEEEE;stroke:rgb(0,0,255);stroke-width:0.1"/>
    <polygon points="9.127849,170.27838 7.0517426,163.48782 0.261137,165.5639 2.3372135,172.35449 " style="fill:#EEEEEE;stroke:rgb(0,0,255);stroke-width:0.1"/>
    <polygon points="9.238659,170.61943 7.022415,163.7986 0.20154381,166.01482 2.417757,172.83568 " style="fill:#EEEEEE;stroke:rgb(0,0,255);stroke-width:0.1"/>
    <polygon points="9.356573,170.96187 6.9982758,164.11295 0.14931107,166.47122 2.507578,173.32019 " style="fill:#EEEEEE;stroke:rgb(0,0,255);stroke-width:0.1"/>
    <polygon points="9.481685,171.30562 6.9794407,164.43082 0.104608536,166.93304 2.606823,173.80788 " style="fill:#EEEEEE;stroke:rgb(0,0,255);stroke-width:0.1"/>
    <polygon points="9.614086,171.65053 6.9660244,164.75217 6.760597e-2,167.40019 2.715643,174.29861 " style="fill:#EEEEEE;stroke:rgb(0,0,255);stroke-width:0.1"/>
    <polygon points="9.753872,171.99652 6.9581394,165.07689 3.847313e-2,167.8726 2.8341827,174.79227 " style="fill:#EEEEEE;stroke:rgb(0,0,255);stroke-width:0.1"/>
    <polygon points="9.901133,172.34344 6.9559,165.40497 1.7381668e-2,168.35017 2.9625912,175.2887 " style="fill:#EEEEEE;stroke:rgb(0,0,255);stroke-width:0.1"/>
    <polygon points="10.055959,172.6912 6.959421,165.73631 4.501343e-3,168.83282 3.101015,175.78775 " style="fill:#EEEEEE;stroke:rgb(0,0,255);stroke-width:0.1"/>
    <polygon points="10.218438,173.03963 6.9688187,166.07085 0.0,169.32045 3.2495995,176.28928 " style="fill:#EEEEEE;stroke:rgb(0,0,255);stroke-width:0.1"/>
    <polygon points="10.3886595,173.38863 6.9842052,166.40852 4.053116e-3,169.81296 3.4084873,176.7931 " style="fill:#EEEEEE;stroke:rgb(0,0,255);stroke-width:0.1"/>
    <polygon points="10.566709,173.73807 7.0056973,166.74925 1.6824722e-2,170.31024 3.5778198,177.29912 " style="fill:#EEEEEE;stroke:rgb(0,0,255);stroke-width:0.1"/>
    <polygon points="10.75267,174.08781 7.033407,167.09296 3.8488388e-2,170.8122 3.757738,177.80711 " style="fill:#EEEEEE;stroke:rgb(0,0,255);stroke-width:0.1"/>
    <polygon points="10.946628,174.43773 7.0674477,167.43954 6.921387e-2,171.31871 3.9483833,178.31696 " style="fill:#EEEEEE;stroke:rgb(0,0,255);stroke-width:0.1"/>
    <polygon points="11.1486635,174.78767 7.107931,167.78896 0.10916901,171.82967 4.149891,178.82845 " style="fill:#EEEEEE;stroke:rgb(0,0,255);stroke-width:0.1"/>
    <polygon points="11.358856,175.13748 7.154974,168.1411 0.15852547,172.34496 4.3624,179.34142 " style="fill:#EEEEEE;stroke:rgb(0,0,255);stroke-width:0.1"/>
    <polygon points="11.577286,175.48705 7.208685,168.49586 0.2174511,172.86446 4.5860424,179.8557 " style="fill:#EEEEEE;stroke:rgb(0,0,255);stroke-width:0.1"/>
    <polygon points="11.804028,175.83621 7.2691784,168.85318 0.28611374,173.38802 4.8209534,180.3711 " style="fill:#EEEEEE;stroke:rgb(0,0,255);stroke-width:0.1"/>
    <polygon points="12.039156,176.1848 7.336567,169.21295 0.36468124,173.91553 5.0672607,180.88744 " style="fill:#EEEEEE;stroke:rgb(0,0,255);stroke-width:0.1"/>
    <polygon points="12.282744,176.53268 7.4109592,169.57509 0.45331955,174.44685 5.325096,181.40451 " style="fill:#EEEEEE;stroke:rgb(0,0,255);stroke-width:0.1"/>
    <polygon points="12.534863,176.8797 7.492468,169.93947 0.5521965,174.98184 5.5945835,181.92213 " style="fill:#EEEEEE;stroke:rgb(0,0,255);stroke-width:0.1"/>
    <polygon points="12.795581,177.22568 7.5812044,170.306 0.66147804,175.52037 5.875849,182.44011 " style="fill:#EEEEEE;stroke:rgb(0,0,255);stroke-width:0.1"/>
    <polygon points="13.064964,177.57048 7.6772738,170.67458 0.7813282,176.06226 6.169014,182.95822 " style="fill:#EEEEEE;stroke:rgb(0,0,255);stroke-width:0.1"/>
    <polygon points="13.343078,177.91391 7.7807856,171.04509 0.911911,176.60738 6.4741974,183.47626 " style="fill:#EEEEEE;stroke:rgb(0,0,255);stroke-width:0.1"/>
    <polygon points="13.629984,178.25584 7.8918476,171.41742 1.0533867,177.15556 6.791519,183.99403 " style="fill:#EEEEEE;stroke:rgb(0,0,255);stroke-width:0.1"/>
    <polygon points="13.925742,178.59607 8.010567,171.79147 1.2059193,177.70665 7.121092,184.5113 " style="fill:#EEEEEE;stroke:rgb(0,0,255);stroke-width:0.1"/>
    <polygon points="14.23041,178.93445 8.137049,172.1671 1.369667,178.26047 7.463028,185.02786 " style="fill:#EEEEEE;stroke:rgb(0,0,255);stroke-width:0.1"/>
    <polygon points="14.544041,179.27077 8.271396,172.5442 1.5447884,178.81685 7.8174343,185.54347 " style="fill:#EEEEEE;stroke:rgb(0,0,255);stroke-width:0.1"/>
    <polygon points="14.866689,179.60489 8.413714,172.92265 1.7314434,179.37564 8.18442,186.05792 " style="fill:#EEEEEE;stroke:rgb(0,0,255);stroke-width:0.1"/>
    <polygon points="15.198402,179.9366 8.564104,173.30232 1.9297848,179.93663 8.564087,186.57095 " style="fill:#EEEEEE;stroke:rgb(0,0,255);stroke-width:0.1"/>
    <polygon points="15.53923,180.26573 8.722667,173.68307 2.139967,180.49965 8.956534,187.08237 " style="fill:#EEEEEE;stroke:rgb(0,0,255);stroke-width:0.1"/>
    <polygon points="15.889215,180.5921 8.8895035,174.06479 2.3621426,181.0645 9.361861,187.59187 " style="fill:#EEEEEE;stroke:rgb(0,0,255);stroke-width:0.1"/>
    <polygon points="16.248398,180.91551 9.064711,174.44731 2.5964622,181.63101 9.78016,188.09927 " style="fill:#EEEEEE;stroke:rgb(0,0,255);stroke-width:0.1"/>
    <polygon points="16.61682,181.23578 9.248385,174.83052 2.8430748,182.19896 10.211521,188.60428 " style="fill:#EEEEEE;stroke:rgb(0,0,255);stroke-width:0.1"/>
    <polygon points="16.994514,181.5527 9.440623,175.21426 3.102129,182.76816 10.656032,189.10666 " style="fill:#EEEEEE;stroke:rgb(0,0,255);stroke-width:0.1"/>
    <polygon points="17.381512,181.86609 9.641519,175.59839 3.3737679,183.3384 11.113773,189.60616 " style="fill:#EEEEEE;stroke:rgb(0,0,255);stroke-width:0.1"/>
    <polygon points="17.777845,182.17574 9.851164,175.98276 3.6581326,183.90945 11.584827,190.1025 " style="fill:#EEEEEE;stroke:rgb(0,0,255);stroke-width:0.1"/>
    <polygon points="18.18354,182.48146 10.069648,176.36722 3.9553623,184.48112 12.069269,190.59543 " style="fill:#EEEEEE;stroke:rgb(0,0,255);stroke-width:0.1"/>
    <polygon points="18.598618,182.78304 10.29706,176.75162 4.2655945,185.05319 12.567168,191.08467 " style="fill:#EEEEEE;stroke:rgb(0,0,255);stroke-width:0.1"/>
    <polygon points="19.023098,183.08026 10.533486,177.13579 4.5889645,185.62541 13.078594,191.56995 " style="fill:#EEEEEE;stroke:rgb(0,0,255);stroke-width:0.1"/>
    <polygon points="19.456997,183.37292 10.779014,177.51958 4.925606,186.19757 13.60361,192.051 " style="fill:#EEEEEE;stroke:rgb(0,0,255);stroke-width:0.1"/>
    <polygon points="19.900328,183.66083 11.033722,177.9028 5.275648,186.76942 14.142275,192.52751 " style="fill:#EEEEEE;stroke:rgb(0,0,255);stroke-width:0.1"/>
    <polygon points="20.353098,183.94376 11.297693,178.28532 5.6392155,187.34074 14.694642,192.99924 " style="fill:#EEEEEE;stroke:rgb(0,0,255);stroke-width:0.1"/>
    <polygon points="20.815313,184.22148 11.571007,178.66696 6.0164337,187.91129 15.260763,193.46587 " style="fill:#EEEEEE;stroke:rgb(0,0,255);stroke-width:0.1"/>
    <polygon points="21.286976,184.4938 11.853738,179.04753 6.407423,188.48079 15.840684,193.92711 " style="fill:#EEEEEE;stroke:rgb(0,0,255);stroke-width:0.1"/>
    <polygon points="21.768082,184.76048 12.145962,179.42686 6.8123016,189.04901 16.434444,194.38268 " style="fill:#EEEEEE;stroke:rgb(0,0,255);stroke-width:0.1"/>
    <polygon points="22.258625,185.02132 12.44775,179.8048 7.231182,189.61569 17.042084,194.83226 " style="fill:#EEEEEE;stroke:rgb(0,0,255);stroke-width:0.1"/>
    <polygon points="22.758596,185.27606 12.759171,180.1811 7.664177,190.18056 17.663628,195.27557 " style="fill:#EEEEEE;stroke:rgb(0,0,255);stroke-width:0.1"/>
    <polygon points="23.267982,185.5245 13.080291,180.55565 8.11139,190.74336 18.299107,195.71228 " style="fill:#EEEEEE;stroke:rgb(0,0,255);stroke-width:0.1"/>
    <polygon points="23.786762,185.76642 13.411175,180.92822 8.572927,191.30382 18.948542,196.14209 " style="fill:#EEEEEE;stroke:rgb(0,0,255);stroke-width:0.1"/>
    <polygon points="24.314913,186.00157 13.751884,181.29861 9.048889,191.86166 19.611946,196.56467 " style="fill:#EEEEEE;stroke:rgb(0,0,255);stroke-width:0.1"/>
    <polygon points="24.85241,186.22972 14.102478,181.66666 9.53937,192.41663 20.289333,196.97974 " style="fill:#EEEEEE;stroke:rgb(0,0,255);stroke-width:0.1"/>
    <polygon points="25.399221,186.45065 14.46301,182.03215 10.044461,192.96838 20.980705,197.38695 " style="fill:#EEEEEE;stroke:rgb(0,0,255);stroke-width:0.1"/>
    <polygon points="25.95531,186.66412 14.833535,182.39488 10.564253,193.51668 21.686062,197.78598 " style="fill:#EEEEEE;stroke:rgb(0,0,255);stroke-width:0.1"/>
    <polygon points="26.520638,186.86987 15.214102,182.75465 11.098826,194.0612 22.405397,198.1765 " style="fill:#EEEEEE;stroke:rgb(0,0,255);stroke-width:0.1"/>
    <polygon points="27.095158,187.0677 15.604757,183.11125 11.648263,194.60168 23.138699,198.5582 " style="fill:#EEEEEE;stroke:rgb(0,0,255);stroke-width:0.1"/>
    <polygon points="27.678822,187.25735 16.005545,183.46448 12.212636,195.13779 23.88595,198.93071 " style="fill:#EEEEEE;stroke:rgb(0,0,255);stroke-width:0.1"/>
    <polygon points="28.271576,187.43858 16.416506,183.81413 12.792016,195.66922 24.647123,199.29373 " style="fill:#EEEEEE;stroke:rgb(0,0,255);stroke-width:0.1"/>
    <polygon points="28.873362,187.61115 16.837675,184.15997 13.386467,196.19568 25.422192,199.64691 " style="fill:#EEEEEE;stroke:rgb(0,0,255);stroke-width:0.1"/>
    <polygon points="29.484114,187.7748 17.269089,184.5018 13.996052,196.71684 26.211117,199.9899 " style="fill:#EEEEEE;stroke:rgb(0,0,255);stroke-width:0.1"/>
    <polygon points="30.103764,187.92929 17.710775,184.83939 14.620825,197.23239 27.013855,200.32237 " style="fill:#EEEEEE;stroke:rgb(0,0,255);stroke-width:0.1"/>
    <polygon points="30.732239,188.07439 18.162762,185.1725 15.260837,197.742 27.830359,200.64395 " style="fill:#EEEEEE;stroke:rgb(0,0,255);stroke-width:0.1"/>
    <polygon points="31.36946,188.20982 18.625069,185.50095 15.916133,198.24536 28.66057,200.95432 " style="fill:#EEEEEE;stroke:rgb(0,0,255);stroke-width:0.1"/>
    <polygon points="32.015343,188.33537 19.097717,185.82446 16.586754,198.74211 29.504425,201.2531 " style="fill:#EEEEEE;stroke:rgb(0,0,255);stroke-width:0.1"/>
    <polygon points="32.669796,188.45078 19.580723,186.14284 17.272736,199.23193 30.361856,201.53995 " style="fill:#EEEEEE;stroke:rgb(0,0,255);stroke-width:0.1"/>
    <polygon points="33.332726,188.55577 20.074097,186.45583 17.974104,199.7145 31.232788,201.81451 " style="fill:#EEEEEE;stroke:rgb(0,0,255);stroke-width:0.1"/>
    <polygon points="34.00404,188.65012 20.577845,186.76321 18.690886,200.18944 32.117134,202.07642 " style="fill:#EEEEEE;stroke:rgb(0,0,255);stroke-width:0.1"/>
    <polygon points="34.683624,188.73357 21.091972,187.06474 19.423096,200.65643 33.0148,202.32532 " style="fill:#EEEEEE;stroke:rgb(0,0,255);stroke-width:0.1"/>
    <polygon points="35.37137,188.80585 21.616476,187.36017 20.170748,201.11511 33.925697,202.56085 " style="fill:#EEEEEE;stroke:rgb(0,0,255);stroke-width:0.1"/>
    <polygon points="36.06716,188.86673 22.151352,187.64926 20.933846,201.56512 34.849712,202.78264 " style="fill:#EEEEEE;stroke:rgb(0,0,255);stroke-width:0.1"/>
    <polygon points="36.770874,188.91594 22.696589,187.9318 21.712389,202.00612 35.786736,202.99033 " style="fill:#EEEEEE;stroke:rgb(0,0,255);stroke-width:0.1"/>
    <polygon points="37.482388,188.95322 23.252176,188.20747 22.506372,202.43773 36.73665,203.18355 " style="fill:#EEEEEE;stroke:rgb(0,0,255);stroke-width:0.1"/>
    <polygon points="38.20156,188.97833 23.818092,188.47607 23.31578,202.85959 37.699318,203.36192 " style="fill:#EEEEEE;stroke:rgb(0,0,255);stroke-width:0.1"/>
    <polygon points="38.92826,188.99103 24.394316,188.73735 24.140596,203.27135 38.674606,203.52509 " style="fill:#EEEEEE;stroke:rgb(0,0,255);stroke-width:0.1"/>
    <polygon points="39.66234,188.99103 24.980818,188.99106 24.98079,203.67262 39.662376,203.67265 " style="fill:#EEEEEE;stroke:rgb(0,0,255);stroke-width:0.1"/>
    <polygon points="40.40364,188.97809 25.577566,189.23691 25.83633,204.06303 40.662476,203.80428 " style="fill:#EEEEEE;stroke:rgb(0,0,255);stroke-width:0.1"/>
    <polygon points="41.15202,188.95195 26.184525,189.47466 26.707174,204.4422 41.674744,203.91956 " style="fill:#EEEEEE;stroke:rgb(0,0,255);stroke-width:0.1"/>
    <polygon points="41.907303,188.91237 26.801651,189.70406 27.593279,204.80975 42.699005,204.01814 " style="fill:#EEEEEE;stroke:rgb(0,0,255);stroke-width:0.1"/>
    <polygon points="42.669327,188.8591 27.428896,189.92484 28.494585,205.16531 43.735092,204.09964 " style="fill:#EEEEEE;stroke:rgb(0,0,255);stroke-width:0.1"/>
    <polygon points="43.437912,188.79185 28.066208,190.13672 29.411034,205.50848 44.782814,204.16367 " style="fill:#EEEEEE;stroke:rgb(0,0,255);stroke-width:0.1"/>
    <polygon points="44.212883,188.7104 28.713531,190.33948 30.342556,205.83888 45.841984,204.20987 " style="fill:#EEEEEE;stroke:rgb(0,0,255);stroke-width:0.1"/>
    <polygon points="44.994045,188.61449 29.370802,190.5328 31.289074,206.1561 46.912395,204.23785 " style="fill:#EEEEEE;stroke:rgb(0,0,255);stroke-width:0.1"/>
    <polygon points="45.78121,188.50386 30.037952,190.71646 32.2505,206.45978 47.993843,204.24724 " style="fill:#EEEEEE;stroke:rgb(0,0,255);stroke-width:0.1"/>
    <polygon points="46.574177,188.37827 30.714909,190.89015 33.22675,206.74948 49.086098,204.23766 " style="fill:#EEEEEE;stroke:rgb(0,0,255);stroke-width:0.1"/>
    <polygon points="47.372734,188.23746 31.401592,191.05363 34.217716,207.02484 50.188942,204.20872 " style="fill:#EEEEEE;stroke:rgb(0,0,255);stroke-width:0.1"/>
    <polygon points="48.176678,188.08119 32.097916,191.2066 35.223293,207.28543 51.30214,204.16008 " style="fill:#EEEEEE;stroke:rgb(0,0,255);stroke-width:0.1"/>
    <polygon points="48.98578,187.90921 32.803795,191.34883 36.243366,207.53087 52.425434,204.09132 " style="fill:#EEEEEE;stroke:rgb(0,0,255);stroke-width:0.1"/>
    <polygon points="49.799816,187.72128 33.519135,191.48 37.27781,207.76074 53.55858,204.00209 " style="fill:#EEEEEE;stroke:rgb(0,0,255);stroke-width:0.1"/>
    <polygon points="50.618557,187.51715 34.243824,191.59985 38.326485,207.97466 54.70131,203.892 " style="fill:#EEEEEE;stroke:rgb(0,0,255);stroke-width:0.1"/>
    <polygon points="51.441757,187.29657 34.97776,191.70811 39.38926,208.17218 55.853348,203.7607 " style="fill:#EEEEEE;stroke:rgb(0,0,255);stroke-width:0.1"/>
    <polygon points="52.26918,187.05933 35.720837,191.8045 40.46598,208.3529 57.01442,203.60779 " style="fill:#EEEEEE;stroke:rgb(0,0,255);stroke-width:0.1"/>
    <polygon points="53.100563,186.80515 36.472923,191.88875 41.55649,208.51645 58.184227,203.4329 " style="fill:#EEEEEE;stroke:rgb(0,0,255);stroke-width:0.1"/>
    <polygon points="53.935654,186.53381 37.233906,191.96056 42.66062,208.66238 59.362465,203.23567 " style="fill:#EEEEEE;stroke:rgb(0,0,255);stroke-width:0.1"/>
    <polygon points="54.77418,186.24509 38.003643,192.01967 43.7782,208.79028 60.54883,203.01575 " style="fill:#EEEEEE;stroke:rgb(0,0,255);stroke-width:0.1"/>
    <polygon points="55.615883,185.93874 38.782,192.06578 44.909027,208.89973 61.743004,202.77274 " style="fill:#EEEEEE;stroke:rgb(0,0,255);stroke-width:0.1"/>
    <polygon points="56.460464,185.61453 39.56884,192.09863 46.052917,208.99034 62.94465,202.50627 " style="fill:#EEEEEE;stroke:rgb(0,0,255);stroke-width:0.1"/>
    <polygon points="57.307648,185.27225 40.364,192.11795 47.20967,209.06168 64.15343,202.21602 " style="fill:#EEEEEE;stroke:rgb(0,0,255);stroke-width:0.1"/>
    <polygon points="58.157143,184.91165 41.167336,192.12343 48.379074,209.11331 65.36899,201.90158 " style="fill:#EEEEEE;stroke:rgb(0,0,255);stroke-width:0.1"/>
    <polygon points="59.008644,184.53255 41.978672,192.1148 49.5609,209.14487 66.59098,201.56264 " style="fill:#EEEEEE;stroke:rgb(0,0,255);stroke-width:0.1"/>
    <polygon points="59.861855,184.13469 42.797848,192.0918 50.75492,209.15588 67.81903,201.19882 " style="fill:#EEEEEE;stroke:rgb(0,0,255);stroke-width:0.1"/>
    <polygon points="60.71644,183.71788 43.62468,192.05411 51.960888,209.14597 69.05276,200.80975 " style="fill:#EEEEEE;stroke:rgb(0,0,255);stroke-width:0.1"/>
    <polygon points="61.572098,183.2819 44.458992,192.0015 53.17856,209.11469 70.29177,200.39513 " style="fill:#EEEEEE;stroke:rgb(0,0,255);stroke-width:0.1"/>
    <polygon points="62.428497,182.82655 45.30059,191.93364 54.407665,209.06165 71.53568,199.95457 " style="fill:#EEEEEE;stroke:rgb(0,0,255);stroke-width:0.1"/>
    <polygon points="63.28531,182.35162 46.149284,191.8503 55.64794,208.98642 72.78408,199.48776 " style="fill:#EEEEEE;stroke:rgb(0,0,255);stroke-width:0.1"/>
    <polygon points="64.14217,181.8569 47.00486,191.75116 56.8991,208.88858 74.03653,198.99434 " style="fill:#EEEEEE;stroke:rgb(0,0,255);stroke-width:0.1"/>
    <polygon points="64.998764,181.34222 47.86711,191.63597 58.16086,208.76772 75.29262,198.47398 " style="fill:#EEEEEE;stroke:rgb(0,0,255);stroke-width:0.1"/>
    <polygon points="65.854706,180.80737 48.735825,191.50446 59.432907,208.62343 76.5519,197.92636 " style="fill:#EEEEEE;stroke:rgb(0,0,255);stroke-width:0.1"/>
    <polygon points="66.709656,180.25217 49.61077,191.35632 60.714935,208.4553 77.81393,197.35115 " style="fill:#EEEEEE;stroke:rgb(0,0,255);stroke-width:0.1"/>
    <polygon points="67.56323,179.67642 50.491726,191.19131 62.00663,208.26292 79.07825,196.74803 " style="fill:#EEEEEE;stroke:rgb(0,0,255);stroke-width:0.1"/>
    <polygon points="68.41507,179.07997 51.37844,191.00916 63.307648,208.04587 80.344376,196.11668 " style="fill:#EEEEEE;stroke:rgb(0,0,255);stroke-width:0.1"/>
    <polygon points="69.26478,178.46262 52.270683,190.80957 64.617645,207.80376 81.61185,195.45682 " style="fill:#EEEEEE;stroke:rgb(0,0,255);stroke-width:0.1"/>
    <polygon points="70.11198,177.82422 53.168186,190.59229 65.93627,207.53616 82.88017,194.7681 " style="fill:#EEEEEE;stroke:rgb(0,0,255);stroke-width:0.1"/>
    <polygon points="70.95625,177.1646 54.070698,190.35706 67.26317,207.2427 84.148834,194.05023 " style="fill:#EEEEEE;stroke:rgb(0,0,255);stroke-width:0.1"/>
    <polygon points="71.797226,176.4836 54.977947,190.10358 68.59795,206.92296 85.41734,193.30295 " style="fill:#EEEEEE;stroke:rgb(0,0,255);stroke-width:0.1"/>
    <polygon points="72.63447,175.78107 55.889664,189.83163 69.940254,206.57654 86.685165,192.52596 " style="fill:#EEEEEE;stroke:rgb(0,0,255);stroke-width:0.1"/>
    <polygon points="73.46757,175.05687 56.805565,189.54094 71.28966,206.20303 87.951775,191.71895 " style="fill:#EEEEEE;stroke:rgb(0,0,255);stroke-width:0.1"/>
    <polygon points="74.29611,174.31085 57.725357,189.23123 72.64577,205.80208 89.21664,190.88168 " style="fill:#EEEEEE;stroke:rgb(0,0,255);stroke-width:0.1"/>
    <polygon points="75.11966,173.54288 58.648743,188.90225 74.00816,205.37328 90.47919,190.01385 " style="fill:#EEEEEE;stroke:rgb(0,0,255);stroke-width:0.1"/>
    <polygon points="75.93778,172.75284 59.575424,188.55377 75.37641,204.91623 91.73887,189.11525 " style="fill:#EEEEEE;stroke:rgb(0,0,255);stroke-width:0.1"/>
    <polygon points="76.75003,171.94058 60.505096,188.18552 76.750084,204.43056 92.99511,188.18558 " style="fill:#EEEEEE;stroke:rgb(0,0,255);stroke-width:0.1"/>
    <polygon points="77.55596,171.10602 61.437424,187.79726 78.12871,203.9159 94.24734,187.22462 " style="fill:#EEEEEE;stroke:rgb(0,0,255);stroke-width:0.1"/>
    <polygon points="78.35512,170.24904 62.372086,187.38873 79.51184,203.37187 95.49496,186.23212 " style="fill:#EEEEEE;stroke:rgb(0,0,255);stroke-width:0.1"/>
    <polygon points="79.14704,169.36952 63.308754,186.95972 80.899,202.7981 96.73737,185.20786 " style="fill:#EEEEEE;stroke:rgb(0,0,255);stroke-width:0.1"/>
    <polygon points="79.93125,168.46739 64.24708,186.50998 82.28971,202.19424 97.97397,184.15161 " style="fill:#EEEEEE;stroke:rgb(0,0,255);stroke-width:0.1"/>
    <polygon points="80.70728,167.54256 65.186714,186.03925 83.683464,201.5599 99.20412,183.06317 " style="fill:#EEEEEE;stroke:rgb(0,0,255);stroke-width:0.1"/>
    <polygon points="81.474655,166.59494 66.12731,185.54733 85.079765,200.89478 100.42719,181.94232 " style="fill:#EEEEEE;stroke:rgb(0,0,255);stroke-width:0.1"/>
    <polygon points="82.23288,165.62445 67.0685,185.034 86.47808,200.19847 101.64255,180.78888 " style="fill:#EEEEEE;stroke:rgb(0,0,255);stroke-width:0.1"/>
    <polygon points="82.98146,164.63106 68.009895,184.49901 87.87789,199.47067 102.84954,179.60266 " style="fill:#EEEEEE;stroke:rgb(0,0,255);stroke-width:0.1"/>
    <polygon points="83.7199,163.61469 68.95114,183.94215 89.278656,198.71101 104.0475,178.3835 " style="fill:#EEEEEE;stroke:rgb(0,0,255);stroke-width:0.1"/>
    <polygon points="84.4477,162.57529 69.89183,183.36324 90.679825,197.9192 105.23578,177.1312 " style="fill:#EEEEEE;stroke:rgb(0,0,255);stroke-width:0.1"/>
    <polygon points="85.164345,161.51282 70.83158,182.76204 92.08083,197.09488 106.41367,175.84563 " style="fill:#EEEEEE;stroke:rgb(0,0,255);stroke-width:0.1"/>
    <polygon points="85.869316,160.42728 71.76999,182.13835 93.48111,196.23776 107.58051,174.52664 " style="fill:#EEEEEE;stroke:rgb(0,0,255);stroke-width:0.1"/>
    <polygon points="86.56209,159.3186 72.70664,181.49197 94.88006,195.34752 108.73559,173.17409 " style="fill:#EEEEEE;stroke:rgb(0,0,255);stroke-width:0.1"/>
    <polygon points="87.24214,158.1868 73.64112,180.82274 96.27709,194.42384 109.8782,171.78787 " style="fill:#EEEEEE;stroke:rgb(0,0,255);stroke-width:0.1"/>
    <polygon points="87.90894,157.03188 74.57301,180.13043 97.6716,193.46646 111.00762,170.36784 " style="fill:#EEEEEE;stroke:rgb(0,0,255);stroke-width:0.1"/>
    <polygon points="88.56196,155.85382 75.50187,179.41489 99.062965,192.47507 112.12313,168.91394 " style="fill:#EEEEEE;stroke:rgb(0,0,255);stroke-width:0.1"/>
    <polygon points="89.20062,154.65265 76.42726,178.6759 100.450554,191.44937 113.224,167.42606 " style="fill:#EEEEEE;stroke:rgb(0,0,255);stroke-width:0.1"/>
    <polygon points="89.82442,153.4284 77.34874,177.91336 101.833725,190.38913 114.30948,165.90413 " style="fill:#EEEEEE;stroke:rgb(0,0,255);stroke-width:0.1"/>
    <polygon points="90.43276,152.1811 78.26585,177.12704 103.21182,189.29407 115.378815,164.34807 " style="fill:#EEEEEE;stroke:rgb(0,0,255);stroke-width:0.1"/>
    <polygon points="91.02512,150.91081 79.17812,176.31683 104.58418,188.16393 116.43126,162.75784 " style="fill:#EEEEEE;stroke:rgb(0,0,255);stroke-width:0.1"/>
    <polygon points="91.60092,149.61755 80.0851,175.48256 105.950134,186.99847 117.466034,161.1334 " style="fill:#EEEEEE;stroke:rgb(0,0,255);stroke-width:0.1"/>
    <polygon points="92.15959,148.30142 80.986305,174.62408 107.309,185.79747 118.48237,159.47473 " style="fill:#EEEEEE;stroke:rgb(0,0,255);stroke-width:0.1"/>
    <polygon points="92.70056,146.96248 81.88125,173.74127 108.66008,184.56068 119.47947,157.78181 " style="fill:#EEEEEE;stroke:rgb(0,0,255);stroke-width:0.1"/>
    <polygon points="93.22326,145.60081 82.76944,172.834 110.00265,183.2879 120.45655,156.05466 " style="fill:#EEEEEE;stroke:rgb(0,0,255);stroke-width:0.1"/>
    <polygon points="93.727104,144.21654 83.65039,171.90213 111.336006,181.97893 121.412796,154.29327 " style="fill:#EEEEEE;stroke:rgb(0,0,255);stroke-width:0.1"/>
    <polygon points="94.2115,142.80974 84.52358,170.94556 112.659424,180.63356 122.34742,152.49768 " style="fill:#EEEEEE;stroke:rgb(0,0,255);stroke-width:0.1"/>
    <polygon points="94.67587,141.38055 85.38852,169.96417 113.97215,179.25162 123.25959,150.66794 " style="fill:#EEEEEE;stroke:rgb(0,0,255);stroke-width:0.1"/>
    <polygon points="95.11962,139.92912 86.24467,168.95789 115.273445,177.83293 124.14849,148.8041 " style="fill:#EEEEEE;stroke:rgb(0,0,255);stroke-width:0.1"/>
    <polygon points="95.54216,138.45557 87.0915,167.92659 116.56255,176.37733 125.01328,146.90623 " style="fill:#EEEEEE;stroke:rgb(0,0,255);stroke-width:0.1"/>
    <polygon points="95.94289,136.96005 87.9285,166.87021 117.83869,174.88469 125.85315,144.97446 " style="fill:#EEEEEE;stroke:rgb(0,0,255);stroke-width:0.1"/>
    <polygon points="96.3212,135.44276 88.75511,165.78868 119.10108,173.35484 126.66723,143.00883 " style="fill:#EEEEEE;stroke:rgb(0,0,255);stroke-width:0.1"/>
    <polygon points="96.67649,133.90385 89.570816,164.68195 120.34894,171.78769 127.45467,141.00952 " style="fill:#EEEEEE;stroke:rgb(0,0,255);stroke-width:0.1"/>
    <polygon points="97.00815,132.34354 90.37504,163.54991 121.58146,170.1831 128.21463,138.97664 " style="fill:#EEEEEE;stroke:rgb(0,0,255);stroke-width:0.1"/>
    <polygon points="97.31557,130.76201 91.16722,162.39256 122.79783,168.541 128.94624,136.91034 " style="fill:#EEEEEE;stroke:rgb(0,0,255);stroke-width:0.1"/>
    <polygon points="97.59814,129.15948 91.9468,161.20987 123.99723,166.86128 129.64862,134.8108 " style="fill:#EEEEEE;stroke:rgb(0,0,255);stroke-width:0.1"/>
    <polygon points="97.85524,127.53621 92.71321,160.00177 125.17883,165.14389 130.32092,132.67822 " style="fill:#EEEEEE;stroke:rgb(0,0,255);stroke-width:0.1"/>
    <polygon points="98.08626,125.89242 93.46588,158.76828 126.3418,163.38875 130.96225,130.51279 " style="fill:#EEEEEE;stroke:rgb(0,0,255);stroke-width:0.1"/>
    <polygon points="98.29057,124.22836 94.204216,157.50937 127.485275,161.59584 131.57172,128.31473 " style="fill:#EEEEEE;stroke:rgb(0,0,255);stroke-width:0.1"/>
    <polygon points="98.467575,122.54433 94.92763,156.22505 128.60841,159.7651 132.14844,126.084274 " style="fill:#EEEEEE;stroke:rgb(0,0,255);stroke-width:0.1"/>
    <polygon points="98.61664,120.84058 95.63552,154.91533 129.71033,157.89656 132.69153,123.8217 " style="fill:#EEEEEE;stroke:rgb(0,0,255);stroke-width:0.1"/>
    <polygon points="98.73714,119.11745 96.3273,153.58025 130.79016,155.99019 133.20007,121.52727 " style="fill:#EEEEEE;stroke:rgb(0,0,255);stroke-width:0.1"/>
    <polygon points="98.828445,117.37521 97.00236,152.21982 131.84703,154.04602 133.67319,119.201294 " style="fill:#EEEEEE;stroke:rgb(0,0,255);stroke-width:0.1"/>
    <polygon points="98.889946,115.61421 97.66007,150.83409 132.88002,152.06407 134.10997,116.84406 " style="fill:#EEEEEE;stroke:rgb(0,0,255);stroke-width:0.1"/>
    <polygon points="98.92101,113.83479 98.29985,149.42313 133.88826,150.0444 134.50949,114.45593 " style="fill:#EEEEEE;stroke:rgb(0,0,255);stroke-width:0.1"/>
    <polygon points="98.92102,112.03731 98.92105,147.987 134.87082,147.98708 134.87085,112.03725 " style="fill:#EEEEEE;stroke:rgb(0,0,255);stroke-width:0.1"/>
    <polygon points="98.88934,110.222115 99.523056,146.52579 135.82678,145.89217 135.19313,109.58837 " style="fill:#EEEEEE;stroke:rgb(0,0,255);stroke-width:0.1"/>
    <polygon points="98.825356,108.38962 100.10523,145.03957 136.75525,143.7598 135.47543,107.10971 " style="fill:#EEEEEE;stroke:rgb(0,0,255);stroke-width:0.1"/>
    <polygon points="98.72844,106.54019 100.66694,143.52844 137.65526,141.59004 135.71681,104.60166 " style="fill:#EEEEEE;stroke:rgb(0,0,255);stroke-width:0.1"/>
    <polygon points="98.59797,104.67428 101.20754,141.99255 138.52588,139.38307 135.91637,102.06467 " style="fill:#EEEEEE;stroke:rgb(0,0,255);stroke-width:0.1"/>
    <polygon points="98.43332,102.79229 101.726395,140.432 139.36618,137.13902 136.07317,99.49917 " style="fill:#EEEEEE;stroke:rgb(0,0,255);stroke-width:0.1"/>
    <polygon points="98.23387,100.89467 102.22285,138.84695 140.17519,134.85806 136.18628,96.905655 " style="fill:#EEEEEE;stroke:rgb(0,0,255);stroke-width:0.1"/>
    <polygon points="97.99902,98.98189 102.69625,137.23753 140.95197,132.54039 136.25479,94.28461 " style="fill:#EEEEEE;stroke:rgb(0,0,255);stroke-width:0.1"/>
    <polygon points="97.728134,97.054405 103.14595,135.60393 141.69554,130.1862 136.27779,91.63654 " style="fill:#EEEEEE;stroke:rgb(0,0,255);stroke-width:0.1"/>
    <polygon points="97.42061,95.11272 103.57127,133.9463 142.40494,127.79574 136.25432,88.962 " style="fill:#EEEEEE;stroke:rgb(0,0,255);stroke-width:0.1"/>
    <polygon points="97.07583,93.15734 103.971565,132.26486 143.07918,125.369225 136.18349,86.26153 " style="fill:#EEEEEE;stroke:rgb(0,0,255);stroke-width:0.1"/>
    <polygon points="96.693184,91.18879 104.34616,130.55981 143.71729,122.90694 136.06435,83.53572 " style="fill:#EEEEEE;stroke:rgb(0,0,255);stroke-width:0.1"/>
    <polygon points="96.27207,89.20759 104.69439,128.83138 144.31828,120.40915 135.896,80.78518 " style="fill:#EEEEEE;stroke:rgb(0,0,255);stroke-width:0.1"/>
    <polygon points="95.81189,87.2143 105.01559,127.07979 144.88115,117.87618 135.67749,78.01051 " style="fill:#EEEEEE;stroke:rgb(0,0,255);stroke-width:0.1"/>
    <polygon points="95.31204,85.2095 105.309074,125.30528 145.40492,115.30835 135.40794,75.21239 " style="fill:#EEEEEE;stroke:rgb(0,0,255);stroke-width:0.1"/>
    <polygon points="94.771935,83.19377 105.574165,123.50813 145.8886,112.706 135.0864,72.391464 " style="fill:#EEEEEE;stroke:rgb(0,0,255);stroke-width:0.1"/>
    <polygon points="94.19098,81.16772 105.810196,121.688614 146.33116,110.0695 134.71198,69.54843 " style="fill:#EEEEEE;stroke:rgb(0,0,255);stroke-width:0.1"/>
    <polygon points="93.568596,79.13196 106.01647,119.84702 146.73161,107.39925 134.28375,66.684006 " style="fill:#EEEEEE;stroke:rgb(0,0,255);stroke-width:0.1"/>
    <polygon points="92.9042,77.08713 106.192314,117.98366 147.08893,104.69564 133.80081,63.798927 " style="fill:#EEEEEE;stroke:rgb(0,0,255);stroke-width:0.1"/>
    <polygon points="92.19721,75.03387 106.33704,116.09885 147.4021,101.959114 133.26227,60.89395 " style="fill:#EEEEEE;stroke:rgb(0,0,255);stroke-width:0.1"/>
    <polygon points="91.44707,72.972855 106.449974,114.19293 147.67012,99.190125 132.66722,57.969864 " style="fill:#EEEEEE;stroke:rgb(0,0,255);stroke-width:0.1"/>
    <polygon points="90.653206,70.90478 106.530426,112.26625 147.89198,96.389145 132.01476,55.027473 " style="fill:#EEEEEE;stroke:rgb(0,0,255);stroke-width:0.1"/>
    <polygon points="89.81507,68.83032 106.577705,110.3192 148.06665,93.55667 131.30402,52.06761 " style="fill:#EEEEEE;stroke:rgb(0,0,255);stroke-width:0.1"/>
    <polygon points="88.93212,66.75021 106.591125,108.35213 148.1931,90.69324 130.5341,49.091133 " style="fill:#EEEEEE;stroke:rgb(0,0,255);stroke-width:0.1"/>
    <polygon points="88.003815,64.66519 106.57001,106.365456 148.27032,87.79937 129.70413,46.098915 " style="fill:#EEEEEE;stroke:rgb(0,0,255);stroke-width:0.1"/>
    <polygon points="87.02962,62.576004 106.51366,104.3596 148.2973,84.875656 128.81326,43.091873 " style="fill:#EEEEEE;stroke:rgb(0,0,255);stroke-width:0.1"/>
    <polygon points="86.009,60.483414 106.4214,102.33498 148.27301,81.922676 127.8606,40.070923 " style="fill:#EEEEEE;stroke:rgb(0,0,255);stroke-width:0.1"/>
    <polygon points="84.941444,58.38822 106.29254,100.29205 148.19644,78.94104 126.84532,37.037018 " style="fill:#EEEEEE;stroke:rgb(0,0,255);stroke-width:0.1"/>
    <polygon points="83.826454,56.291206 106.1264,98.231285 148.06654,75.9314 125.76656,33.991142 " style="fill:#EEEEEE;stroke:rgb(0,0,255);stroke-width:0.1"/>
    <polygon points="82.66351,54.1932 105.9223,96.15315 147.88232,72.89441 124.62349,30.934296 " style="fill:#EEEEEE;stroke:rgb(0,0,255);stroke-width:0.1"/>
    <polygon points="81.45215,52.09503 105.679565,94.05816 147.64276,69.83077 123.415276,27.867493 " style="fill:#EEEEEE;stroke:rgb(0,0,255);stroke-width:0.1"/>
    <polygon points="80.191864,49.997566 105.397514,91.946815 147.34683,66.74119 122.14111,24.791794 " style="fill:#EEEEEE;stroke:rgb(0,0,255);stroke-width:0.1"/>
    <polygon points="78.8822,47.901665 105.07547,89.81965 146.99353,63.626404 120.80019,21.708267 " style="fill:#EEEEEE;stroke:rgb(0,0,255);stroke-width:0.1"/>
    <polygon points="77.5227,45.808205 104.71276,87.677216 146.58183,60.487175 119.39172,18.618011 " style="fill:#EEEEEE;stroke:rgb(0,0,255);stroke-width:0.1"/>
    <polygon points="76.11291,43.718094 104.308716,85.52008 146.11076,57.324295 117.91491,15.522156 " style="fill:#EEEEEE;stroke:rgb(0,0,255);stroke-width:0.1"/>
    <polygon points="74.6524,41.632263 103.86266,83.34883 145.5793,54.13858 116.36898,12.4218445 " style="fill:#EEEEEE;stroke:rgb(0,0,255);stroke-width:0.1"/>
    <polygon points="73.14074,39.551636 103.37395,81.16407 144.98645,50.930862 114.75318,9.318268 " style="fill:#EEEEEE;stroke:rgb(0,0,255);stroke-width:0.1"/>
    <polygon points="71.57752,37.477173 102.84191,78.96641 144.3312,47.70202 113.066765,6.212616 " style="fill:#EEEEEE;stroke:rgb(0,0,255);stroke-width:0.1"/>
    <polygon points="69.96234,35.40983 102.2659,76.756485 143.61261,44.452927 111.309,3.1061096 " style="fill:#EEEEEE;stroke:rgb(0,0,255);stroke-width:0.1"/>
    <polygon points="68.29482,33.3506 101.645256,74.53495 142.82967,41.184517 109.479164,0.0 " style="fill:#EEEEEE;stroke:rgb(0,0,255);stroke-width:0.1"/>
</svg>